<svg id="Layer_1" data-name="Layer 1" xmlns="http://www.w3.org/2000/svg" viewBox="0 0 13.97 11.36"><defs><style>.cls-1{fill:#fff;}</style></defs><path class="cls-1" d="M1.68.58,0,.8,0,.49,3.38,0H4.6V10.9H5.76v.3H.1v-.3H1.68Z"/><path class="cls-1" d="M9.36,11.36a3.85,3.85,0,0,1-3.3-1.54A7.16,7.16,0,0,1,4.93,5.5,6.07,6.07,0,0,1,6.14,1.36,4.2,4.2,0,0,1,9.45,0a4.21,4.21,0,0,1,3.31,1.35A6.44,6.44,0,0,1,14,5.67,6.4,6.4,0,0,1,12.75,10,4.27,4.27,0,0,1,9.36,11.36ZM8,5.09v1.4Q8,8,8,8.65A7.63,7.63,0,0,0,8.17,10a1.31,1.31,0,0,0,.44.87,1.25,1.25,0,0,0,.7.2,3,3,0,0,0,.61,0,.81.81,0,0,0,.36-.2,3.22,3.22,0,0,0,.26-.29,1.26,1.26,0,0,0,.17-.47c0-.21.08-.4.11-.58a6.22,6.22,0,0,0,.06-.79c0-.67,0-1.35,0-2V5.23a22.8,22.8,0,0,0-.21-4A1.13,1.13,0,0,0,9.46.33a1.14,1.14,0,0,0-1.24.93A20.16,20.16,0,0,0,8,5.09Z"/></svg>