<svg id="Layer_1" data-name="Layer 1" xmlns="http://www.w3.org/2000/svg" viewBox="0 0 7.67 11.2"><defs><style>.cls-1{fill:#fff;}</style></defs><path class="cls-1" d="M.91.68A4.62,4.62,0,0,1,3.66,0,5,5,0,0,1,6.47.68a2.31,2.31,0,0,1,1,2,3.34,3.34,0,0,1-.08.8A2.14,2.14,0,0,1,7,4.25a8.08,8.08,0,0,1-.54.68,6.68,6.68,0,0,1-.89.79q-.95.75-2,1.5L2.4,8.1l-1,.69H5.22a2.12,2.12,0,0,0,1.54-.47,3,3,0,0,0,.65-1.48h.26L7.52,11.2H.11V9.37L1.7,7.91A12.24,12.24,0,0,0,4,5.27a5,5,0,0,0,.68-2.55A4.17,4.17,0,0,0,4.38.81a1.08,1.08,0,0,0-1-.51,1.19,1.19,0,0,0-1,.36,1.12,1.12,0,0,0-.28.69,1.74,1.74,0,0,0,.09.59h.47a2.08,2.08,0,0,1,.13.79,1.05,1.05,0,0,1-.39.81,1.59,1.59,0,0,1-1,.34,1.24,1.24,0,0,1-1-.42,1.6,1.6,0,0,1-.35-1A2.06,2.06,0,0,1,.91.68Z"/></svg>