<svg id="Layer_1" data-name="Layer 1" xmlns="http://www.w3.org/2000/svg" viewBox="0 0 8.08 11.36"><defs><style>.cls-1{fill:#fff;}</style></defs><path class="cls-1" d="M1.13.69A4.75,4.75,0,0,1,3.94,0Q7.53,0,7.53,2.5a2.08,2.08,0,0,1-.84,1.7,5.26,5.26,0,0,1-2.42.94v0a5.06,5.06,0,0,1,2.88.91,2.48,2.48,0,0,1,.93,2,2.8,2.8,0,0,1-1.22,2.4,5.67,5.67,0,0,1-3.39.88,6.19,6.19,0,0,1-1.59-.19,2.91,2.91,0,0,1-1.3-.75A1.76,1.76,0,0,1,0,9.09a1.78,1.78,0,0,1,.37-1.2,1.3,1.3,0,0,1,1-.42,1.45,1.45,0,0,1,1,.34,1,1,0,0,1,.38.8,2.13,2.13,0,0,1-.13.8H2.17a1.5,1.5,0,0,0-.09.52Q2.08,11,3.4,11a1.27,1.27,0,0,0,1.27-.7A4.87,4.87,0,0,0,5,8.29a4.47,4.47,0,0,0-.32-1.95,2.19,2.19,0,0,0-1-.92,11.7,11.7,0,0,1-1.37.2l0-.34a2.81,2.81,0,0,0,1.82-.66,3.06,3.06,0,0,0,.43-1.86A5.06,5.06,0,0,0,4.31.86.91.91,0,0,0,3.43.28a1,1,0,0,0-.87.37,1.27,1.27,0,0,0-.26.7,1.52,1.52,0,0,0,.1.59h.45A2.08,2.08,0,0,1,3,2.73a1,1,0,0,1-.4.81,1.57,1.57,0,0,1-1,.34,1.24,1.24,0,0,1-1-.42,1.6,1.6,0,0,1-.35-1A2,2,0,0,1,1.13.69Z"/></svg>