<svg id="Layer_1" data-name="Layer 1" xmlns="http://www.w3.org/2000/svg" viewBox="0 0 7.78 11.33"><defs><style>.cls-1{fill:#fff;}</style></defs><path class="cls-1" d="M4.6,7.48a5.92,5.92,0,0,0-.26-2.09,1.13,1.13,0,0,0-1.17-.6,3.85,3.85,0,0,0-2,.68L.9,5.34v-5L1.15.13q1,.14,2.91.33c1.31.14,2.06.2,2.27.2A.57.57,0,0,0,6.77.51,1.36,1.36,0,0,0,7,0l.23,0A7.27,7.27,0,0,1,6.62,2.9a.66.66,0,0,1-.52.24,6.87,6.87,0,0,1-1.33-.27L1.34,2,1.26,5a5,5,0,0,1,2.38-.62,6.34,6.34,0,0,1,2.05.28A3,3,0,0,1,7,5.45a3.28,3.28,0,0,1,.83,2.26,3.23,3.23,0,0,1-1.2,2.65,5.15,5.15,0,0,1-3.32,1,4.74,4.74,0,0,1-2.09-.47,2.25,2.25,0,0,1-.85-.77A2.09,2.09,0,0,1,0,8.94,1.59,1.59,0,0,1,.37,7.86a1.3,1.3,0,0,1,1-.42,1.5,1.5,0,0,1,1,.32,1,1,0,0,1,.37.83,2.5,2.5,0,0,1-.14.88H2.13a1.52,1.52,0,0,0-.1.59,1,1,0,0,0,.27.65,1,1,0,0,0,.79.3,1.53,1.53,0,0,0,.79-.16,1.42,1.42,0,0,0,.41-.4,2.53,2.53,0,0,0,.22-.74A20,20,0,0,0,4.6,7.48Z"/></svg>