<svg id="Layer_1" data-name="Layer 1" xmlns="http://www.w3.org/2000/svg" viewBox="0 0 8.84 11.36"><defs><style>.cls-1{fill:#fff;}</style></defs><path class="cls-1" d="M0,6.35a7.21,7.21,0,0,1,1.36-4.7A4.6,4.6,0,0,1,5.1,0,4.08,4.08,0,0,1,7.59.65a2.05,2.05,0,0,1,.87,1.71,1.51,1.51,0,0,1-.39,1,1.3,1.3,0,0,1-1,.43,1.44,1.44,0,0,1-1-.34,1.05,1.05,0,0,1-.38-.8,2.22,2.22,0,0,1,.13-.81h.5a1.48,1.48,0,0,0,.1-.57c0-.66-.38-1-1.12-1A1.71,1.71,0,0,0,3.64,1.47a10.86,10.86,0,0,0-.54,4A2.67,2.67,0,0,1,5.48,4.19,3.46,3.46,0,0,1,7.94,5a3.32,3.32,0,0,1,.9,2.53A3.48,3.48,0,0,1,7.66,10.3a4.57,4.57,0,0,1-3.17,1.06Q0,11.36,0,6.35ZM4.68,4.71a1.18,1.18,0,0,0-.91.4,2.23,2.23,0,0,0-.5.95,6.07,6.07,0,0,0-.13,1.42V8.69c0,.23,0,.49,0,.8a3.14,3.14,0,0,0,.12.68,2.31,2.31,0,0,0,.22.45.87.87,0,0,0,.8.41,1.35,1.35,0,0,0,.83-.21,1.28,1.28,0,0,0,.4-.72,7.38,7.38,0,0,0,.19-1.84c0-.74,0-1.23,0-1.47s0-.5,0-.76a2.47,2.47,0,0,0-.1-.61A2.32,2.32,0,0,0,5.42,5,.82.82,0,0,0,4.68,4.71Z"/></svg>