<svg id="Layer_1" data-name="Layer 1" xmlns="http://www.w3.org/2000/svg" viewBox="0 0 8.84 11.36"><defs><style>.cls-1{fill:#fff;}</style></defs><path class="cls-1" d="M3.53,5.4a4,4,0,0,1-2.38-.76A2.17,2.17,0,0,1,.3,2.87,2.48,2.48,0,0,1,1.35.77,5.26,5.26,0,0,1,4.44,0,5.43,5.43,0,0,1,7.52.72a2.29,2.29,0,0,1,1,2,2.41,2.41,0,0,1-.81,1.92,3.82,3.82,0,0,1-2.31.81v0c2.26.19,3.4,1.15,3.4,2.88A2.62,2.62,0,0,1,7.78,10.6a5.75,5.75,0,0,1-3.32.76Q0,11.36,0,8.35,0,5.7,3.53,5.45Zm2.3,2.93a5.74,5.74,0,0,0-.28-2.09,1.09,1.09,0,0,0-1.1-.63,1.06,1.06,0,0,0-1.09.64,5.49,5.49,0,0,0-.29,2.09,5.38,5.38,0,0,0,.28,2.07A1.09,1.09,0,0,0,4.46,11a1.07,1.07,0,0,0,1.1-.62A5.73,5.73,0,0,0,5.83,8.33ZM4.46.33a.84.84,0,0,0-.89.56,4.71,4.71,0,0,0-.2,1.51c0,.64,0,1.06,0,1.28a5.45,5.45,0,0,0,.07.67,1.36,1.36,0,0,0,.18.52,1,1,0,0,0,.87.38.93.93,0,0,0,.8-.38A1.64,1.64,0,0,0,5.53,4c0-.4,0-.92,0-1.56A4.76,4.76,0,0,0,5.35.89.84.84,0,0,0,4.46.33Z"/></svg>