<svg id="Layer_1" data-name="Layer 1" xmlns="http://www.w3.org/2000/svg" viewBox="0 0 8.84 11.36"><defs><style>.cls-1{fill:#fff;}</style></defs><path class="cls-1" d="M8.84,5a7.27,7.27,0,0,1-1.33,4.7,4.49,4.49,0,0,1-3.7,1.65,4.61,4.61,0,0,1-2.59-.63A1.92,1.92,0,0,1,.28,9.09,1.64,1.64,0,0,1,.67,8a1.27,1.27,0,0,1,1-.47,1.4,1.4,0,0,1,1,.34,1,1,0,0,1,.37.8A2.47,2.47,0,0,1,3,9.48H2.47a1.51,1.51,0,0,0-.11.61.86.86,0,0,0,.34.66,1.47,1.47,0,0,0,1,.29A1.6,1.6,0,0,0,5.24,9.89a11.91,11.91,0,0,0,.5-4A2.77,2.77,0,0,1,3.25,7.17,3.17,3.17,0,0,1,.91,6.25,3.35,3.35,0,0,1,0,3.75,3.3,3.3,0,0,1,1.25.93,5.26,5.26,0,0,1,4.46,0Q8.84,0,8.84,5ZM4.16,6.65a1.22,1.22,0,0,0,.91-.4,2.23,2.23,0,0,0,.5-1A6.07,6.07,0,0,0,5.7,3.88V2.67c0-.23,0-.49,0-.8a2.71,2.71,0,0,0-.11-.68A4.38,4.38,0,0,0,5.34.74.93.93,0,0,0,4.47.33a1.14,1.14,0,0,0-1,.57A3.71,3.71,0,0,0,3.1,2.47c0,.27,0,.62,0,1.07s0,.79,0,1a6.68,6.68,0,0,0,0,.76,2.47,2.47,0,0,0,.1.61,2.32,2.32,0,0,0,.18.39A.82.82,0,0,0,4.16,6.65Z"/></svg>