<svg id="Layer_1" data-name="Layer 1" xmlns="http://www.w3.org/2000/svg" viewBox="0 0 15.24 14.46"><defs><style>.cls-1{fill:#eb4034;}.cls-2{fill:#fff;opacity:0.5;}</style></defs><path class="cls-1" d="M15.24,7.06v0a7.66,7.66,0,0,0-7.51,7.37H7.67A7.7,7.7,0,0,0,0,7.07,7.69,7.69,0,0,0,7.65,0h.1A7.67,7.67,0,0,0,15.24,7.06Z"/><path class="cls-2" d="M12.54,7.12v0a4.94,4.94,0,0,0-4.85,4.75h0A5,5,0,0,0,2.7,7.13,5,5,0,0,0,7.64,2.56H7.7A5,5,0,0,0,12.54,7.12Z"/><path class="cls-1" d="M10.25,7.17h0A2.64,2.64,0,0,0,7.66,9.72h0A2.67,2.67,0,0,0,5,7.17,2.64,2.64,0,0,0,7.63,4.74h0A2.64,2.64,0,0,0,10.25,7.17Z"/></svg>