<svg id="Layer_1" data-name="Layer 1" xmlns="http://www.w3.org/2000/svg" viewBox="0 0 7.48 11.17"><defs><style>.cls-1{fill:#fff;}</style></defs><path class="cls-1" d="M2.36,0H7.48V.3H6.62V7.11a4.25,4.25,0,0,1-1,3.09,3.9,3.9,0,0,1-2.89,1,3.62,3.62,0,0,1-2-.49A1.54,1.54,0,0,1,0,9.31,1.46,1.46,0,0,1,.38,8.25a1.36,1.36,0,0,1,1-.39,1.32,1.32,0,0,1,1,.33,1.13,1.13,0,0,1,.32.8,2.88,2.88,0,0,1-.17.94H1.92a.88.88,0,0,0-.14.45.44.44,0,0,0,.21.36,1,1,0,0,0,.56.15.77.77,0,0,0,.81-.5,7.9,7.9,0,0,0,.18-2.15V.3H2.36Z"/></svg>