<svg id="Layer_1" data-name="Layer 1" xmlns="http://www.w3.org/2000/svg" viewBox="0 0 10.49 14.9"><defs><style>.cls-1{fill:#fff;}</style></defs><path class="cls-1" d="M0,5.86A6.22,6.22,0,0,1,1.39,1.55,5.06,5.06,0,0,1,5.34,0,4.86,4.86,0,0,1,9.19,1.47a6.13,6.13,0,0,1,1.3,4.19q0,5.15-4.47,5.56v.11a2.23,2.23,0,0,1,1.33.49,2.34,2.34,0,0,1,.65,1,3.61,3.61,0,0,0,.4.9.61.61,0,0,0,.52.23c.4,0,.63-.42.71-1.26l.34,0a2.09,2.09,0,0,1-.64,1.59,2.46,2.46,0,0,1-1.71.55,2.46,2.46,0,0,1-1.7-.54A3.38,3.38,0,0,1,5,12.76a3,3,0,0,0-.35-.83.41.41,0,0,0-.36-.19,2,2,0,0,0-1.16.64l-.23-.25a2.62,2.62,0,0,1,1.44-.77v-.09A4.52,4.52,0,0,1,1.1,9.64,6,6,0,0,1,0,5.86Zm7.25.47V5.17A13.56,13.56,0,0,0,7,1.53,1.6,1.6,0,0,0,6.07.46,2.15,2.15,0,0,0,5.26.33a2.22,2.22,0,0,0-.81.13A1.19,1.19,0,0,0,3.89.9a3,3,0,0,0-.35.66,4.67,4.67,0,0,0-.22,1c-.06.61-.09,1.5-.09,2.69V6.37A17.05,17.05,0,0,0,3.38,9.1a3.41,3.41,0,0,0,.37,1.16A1.67,1.67,0,0,0,5.26,11a1.54,1.54,0,0,0,1.62-1A12.57,12.57,0,0,0,7.25,6.33Z"/></svg>