<svg id="Layer_1" data-name="Layer 1" xmlns="http://www.w3.org/2000/svg" viewBox="0 0 16.21 14.46"><defs><style>.cls-1{fill:#fff;opacity:0.5;}</style></defs><path d="M0,9.58A4,4,0,0,1,3,5.67V5.61A5.89,5.89,0,0,0,8.05,0h.12a5.92,5.92,0,0,0,4.71,5.56v0A4,4,0,1,1,8.37,11a4.06,4.06,0,0,0,2.2,3.46H5.63A4,4,0,0,0,7.83,11,4,4,0,0,1,0,9.58Z"/><path class="cls-1" d="M7.25,13.93a2.09,2.09,0,0,0,.84-1.54h0A2.07,2.07,0,0,0,9,13.93Z"/><path class="cls-1" d="M1.3,9.17A3.39,3.39,0,0,1,3.85,5.88v0A5,5,0,0,0,8.06,1.12h.1a5,5,0,0,0,3.95,4.67v0a3.4,3.4,0,1,1-4,3.35,1.1,1.1,0,0,1,0-.26h0a2.17,2.17,0,0,1,0,.26,3.4,3.4,0,1,1-6.8,0Z"/><path d="M2.54,8.75A2.76,2.76,0,0,1,4.63,6.06V6A4,4,0,0,0,8.06,2.16h.09A4.07,4.07,0,0,0,11.38,6V6A2.78,2.78,0,1,1,8.11,8.75a1.41,1.41,0,0,1,0-.21h0a1.41,1.41,0,0,1,0,.21,2.78,2.78,0,1,1-5.56,0Z"/></svg>