<svg id="cards" xmlns="http://www.w3.org/2000/svg" viewBox="0 0 44.21 76.03"><defs><style>.cls-1{fill:#940b00;}</style></defs><path class="cls-1" d="M62.11,21.19a4.28,4.28,0,0,1-3.21,4.14v.06a6.21,6.21,0,0,0-5.29,5.92h-.13a6.24,6.24,0,0,0-5-5.87v0a4.27,4.27,0,1,1,5-4.21,1.67,1.67,0,0,1,0,.32h0a1.67,1.67,0,0,1,0-.32,4.28,4.28,0,0,1,8.56,0Z" transform="translate(-17.89 -16.92)"/><path class="cls-1" d="M62.11,41.83A4.27,4.27,0,0,1,58.9,46V46a6.22,6.22,0,0,0-5.29,5.92h-.13a6.25,6.25,0,0,0-5-5.87v0a4.27,4.27,0,1,1,5-4.2,1.77,1.77,0,0,1,0,.32h0a1.77,1.77,0,0,1,0-.32,4.28,4.28,0,1,1,8.56,0Z" transform="translate(-17.89 -16.92)"/><path class="cls-1" d="M48.55,31.44a4.27,4.27,0,0,1-3.2,4.14v.06a6.21,6.21,0,0,0-5.29,5.92h-.13a6.25,6.25,0,0,0-5-5.87v0a4.27,4.27,0,1,1,5-4.21,1.83,1.83,0,0,1,0,.33H40a1.83,1.83,0,0,1,0-.33,4.28,4.28,0,0,1,8.55,0Z" transform="translate(-17.89 -16.92)"/><path class="cls-1" d="M35,21.19a4.28,4.28,0,0,1-3.2,4.14v.06a6.21,6.21,0,0,0-5.29,5.92h-.13a6.24,6.24,0,0,0-5-5.87v0a4.27,4.27,0,1,1,5-4.21,1.67,1.67,0,0,1,0,.32h0a1.67,1.67,0,0,1,0-.32,4.28,4.28,0,0,1,8.55,0Z" transform="translate(-17.89 -16.92)"/><path class="cls-1" d="M35,41.7a4.27,4.27,0,0,1-3.2,4.13v.06a6.21,6.21,0,0,0-5.29,5.92h-.13a6.25,6.25,0,0,0-5-5.87v0a4.27,4.27,0,1,1,5-4.2,1.77,1.77,0,0,1,0,.32h0a1.77,1.77,0,0,1,0-.32,4.28,4.28,0,1,1,8.55,0Z" transform="translate(-17.89 -16.92)"/><path class="cls-1" d="M45,88.68a4.27,4.27,0,0,1,3.2-4.14v-.06a6.21,6.21,0,0,0,5.29-5.92h.13a6.24,6.24,0,0,0,5,5.87v0a4.27,4.27,0,1,1-5,4.21,1.83,1.83,0,0,1,0-.33h0a1.83,1.83,0,0,1,0,.33,4.28,4.28,0,0,1-8.55,0Z" transform="translate(-17.89 -16.92)"/><path class="cls-1" d="M17.89,88.68a4.27,4.27,0,0,1,3.21-4.14v-.06a6.21,6.21,0,0,0,5.29-5.92h.13a6.24,6.24,0,0,0,5,5.87v0a4.27,4.27,0,1,1-5,4.21,1.83,1.83,0,0,1,0-.33h-.05a1.83,1.83,0,0,1,0,.33,4.28,4.28,0,0,1-8.56,0Z" transform="translate(-17.89 -16.92)"/><path class="cls-1" d="M17.89,68.17A4.27,4.27,0,0,1,21.1,64V64a6.22,6.22,0,0,0,5.29-5.92h.13a6.25,6.25,0,0,0,5,5.87v0a4.27,4.27,0,1,1-5,4.2,1.77,1.77,0,0,1,0-.32h-.05a1.77,1.77,0,0,1,0,.32,4.28,4.28,0,1,1-8.56,0Z" transform="translate(-17.89 -16.92)"/><path class="cls-1" d="M31.45,78.43a4.27,4.27,0,0,1,3.2-4.14v-.06a6.21,6.21,0,0,0,5.29-5.92h.13a6.25,6.25,0,0,0,5,5.87v0a4.27,4.27,0,1,1-5,4.21,1.83,1.83,0,0,1,0-.33H40a1.83,1.83,0,0,1,0,.33,4.28,4.28,0,0,1-8.55,0Z" transform="translate(-17.89 -16.92)"/><path class="cls-1" d="M45,68.17A4.27,4.27,0,0,1,48.2,64V64a6.22,6.22,0,0,0,5.29-5.92h.13a6.25,6.25,0,0,0,5,5.87v0a4.27,4.27,0,1,1-5,4.2,1.77,1.77,0,0,1,0-.32h0a1.77,1.77,0,0,1,0,.32,4.28,4.28,0,1,1-8.55,0Z" transform="translate(-17.89 -16.92)"/></svg>