<svg id="cards" xmlns="http://www.w3.org/2000/svg" viewBox="0 0 15.24 67.9"><defs><style>.cls-1{fill:#940b00;}</style></defs><path class="cls-1" d="M47.62,28.11v0a7.66,7.66,0,0,0-7.51,7.37h-.06a7.7,7.7,0,0,0-7.67-7.39A7.69,7.69,0,0,0,40,21.05h.1A7.67,7.67,0,0,0,47.62,28.11Z" transform="translate(-32.38 -21.05)"/><path class="cls-1" d="M47.62,81.55v0A7.67,7.67,0,0,0,40.11,89h-.06a7.7,7.7,0,0,0-7.67-7.39A7.68,7.68,0,0,0,40,74.49h.1A7.67,7.67,0,0,0,47.62,81.55Z" transform="translate(-32.38 -21.05)"/></svg>