<svg id="cards" xmlns="http://www.w3.org/2000/svg" viewBox="0 0 17.11 67.9"><defs><style>.cls-1{fill:#940b00;}</style></defs><path class="cls-1" d="M48.55,25.32a4.27,4.27,0,0,1-3.2,4.14v.06a6.21,6.21,0,0,0-5.29,5.92h-.13a6.24,6.24,0,0,0-5-5.87v0a4.27,4.27,0,1,1,5-4.21,1.83,1.83,0,0,1,0,.33H40a1.83,1.83,0,0,1,0-.33,4.28,4.28,0,0,1,8.55,0Z" transform="translate(-31.45 -21.05)"/><path class="cls-1" d="M31.45,84.68a4.27,4.27,0,0,1,3.2-4.14v-.06a6.21,6.21,0,0,0,5.29-5.92h.13a6.24,6.24,0,0,0,5,5.87v0a4.27,4.27,0,1,1-5,4.21,1.83,1.83,0,0,1,0-.33H40a1.83,1.83,0,0,1,0,.33,4.28,4.28,0,0,1-8.55,0Z" transform="translate(-31.45 -21.05)"/></svg>