<svg id="cards" xmlns="http://www.w3.org/2000/svg" viewBox="0 0 43.75 71.9"><path d="M18.12,29.8A3.94,3.94,0,0,1,24,26.38,3.93,3.93,0,1,1,29.94,23a.92.92,0,0,1,0,.16,3.92,3.92,0,0,1-2.06,3.3h0a3.88,3.88,0,0,1,2.07-.6,3.94,3.94,0,1,1-3.67,5.33,3.91,3.91,0,0,0,2.13,3.3H23.6a4,4,0,0,0,2.14-3.31,3.94,3.94,0,0,1-7.62-1.38Z" transform="translate(-18.12 -19.05)"/><path d="M32.12,58a3.93,3.93,0,0,1,3.94-3.94,4,4,0,0,1,2,.52,3.93,3.93,0,1,1,5.92-3.39.92.92,0,0,1,0,.16,3.9,3.9,0,0,1-2.06,3.3h0a3.82,3.82,0,0,1,2.06-.6,3.94,3.94,0,1,1-3.67,5.34,3.91,3.91,0,0,0,2.13,3.29H37.6a3.93,3.93,0,0,0,2.14-3.31A3.94,3.94,0,0,1,32.12,58Z" transform="translate(-18.12 -19.05)"/><path d="M61.88,80.2A3.94,3.94,0,0,1,56,83.62,3.93,3.93,0,1,1,50.06,87a.92.92,0,0,1,0-.16,3.92,3.92,0,0,1,2.06-3.3h0a3.88,3.88,0,0,1-2.07.6,3.94,3.94,0,1,1,3.67-5.33,3.91,3.91,0,0,0-2.13-3.3h4.8a4,4,0,0,0-2.14,3.31,3.94,3.94,0,0,1,7.62,1.38Z" transform="translate(-18.12 -19.05)"/></svg>