<svg id="cards" xmlns="http://www.w3.org/2000/svg" viewBox="0 0 44.21 75.9"><defs><style>.cls-1{fill:#940b00;}</style></defs><path class="cls-1" d="M62.11,54.83v0a7.67,7.67,0,0,0-7.52,7.37h-.06a7.7,7.7,0,0,0-7.67-7.39,7.7,7.7,0,0,0,7.66-7.07h.09A7.67,7.67,0,0,0,62.11,54.83Z" transform="translate(-17.89 -17.05)"/><path class="cls-1" d="M62.11,24.11v0a7.67,7.67,0,0,0-7.52,7.37h-.06a7.7,7.7,0,0,0-7.67-7.39,7.71,7.71,0,0,0,7.66-7.07h.09A7.67,7.67,0,0,0,62.11,24.11Z" transform="translate(-17.89 -17.05)"/><path class="cls-1" d="M62.11,85.55v0A7.68,7.68,0,0,0,54.59,93h-.06a7.7,7.7,0,0,0-7.67-7.39,7.7,7.7,0,0,0,7.66-7.07h.09A7.67,7.67,0,0,0,62.11,85.55Z" transform="translate(-17.89 -17.05)"/><path class="cls-1" d="M33.14,54.83v0a7.65,7.65,0,0,0-7.51,7.37h-.07a7.69,7.69,0,0,0-7.67-7.39,7.7,7.7,0,0,0,7.66-7.07h.09A7.68,7.68,0,0,0,33.14,54.83Z" transform="translate(-17.89 -17.05)"/><path class="cls-1" d="M33.14,85.55v0A7.66,7.66,0,0,0,25.63,93h-.07a7.69,7.69,0,0,0-7.67-7.39,7.7,7.7,0,0,0,7.66-7.07h.09A7.68,7.68,0,0,0,33.14,85.55Z" transform="translate(-17.89 -17.05)"/><path class="cls-1" d="M33.14,24.11v0a7.65,7.65,0,0,0-7.51,7.37h-.07a7.69,7.69,0,0,0-7.67-7.39,7.71,7.71,0,0,0,7.66-7.07h.09A7.68,7.68,0,0,0,33.14,24.11Z" transform="translate(-17.89 -17.05)"/></svg>