<svg id="cards" xmlns="http://www.w3.org/2000/svg" viewBox="0 0 44.21 75.9"><defs><style>.cls-1{fill:#940b00;}</style></defs><path class="cls-1" d="M35,52.08a4.26,4.26,0,0,1-3.2,4.13v.06a6.22,6.22,0,0,0-5.29,5.92h-.13a6.23,6.23,0,0,0-5-5.86v0a4.27,4.27,0,1,1,5-4.2,1.72,1.72,0,0,1,0,.32h0a1.72,1.72,0,0,1,0-.32,4.28,4.28,0,0,1,8.55,0Z" transform="translate(-17.89 -17.05)"/><path class="cls-1" d="M35,21.32a4.27,4.27,0,0,1-3.2,4.14v.06a6.21,6.21,0,0,0-5.29,5.92h-.13a6.24,6.24,0,0,0-5-5.87v0a4.27,4.27,0,1,1,5-4.21,1.83,1.83,0,0,1,0,.33h0a1.83,1.83,0,0,1,0-.33,4.28,4.28,0,0,1,8.55,0Z" transform="translate(-17.89 -17.05)"/><path class="cls-1" d="M62.11,52.08a4.26,4.26,0,0,1-3.21,4.13v.06a6.22,6.22,0,0,0-5.29,5.92h-.13a6.23,6.23,0,0,0-5-5.86v0a4.27,4.27,0,1,1,5-4.2,1.72,1.72,0,0,1,0,.32h0a1.72,1.72,0,0,1,0-.32,4.28,4.28,0,0,1,8.56,0Z" transform="translate(-17.89 -17.05)"/><path class="cls-1" d="M45,88.68a4.27,4.27,0,0,1,3.2-4.14v-.06a6.21,6.21,0,0,0,5.29-5.92h.13a6.24,6.24,0,0,0,5,5.87v0a4.27,4.27,0,1,1-5,4.21,1.83,1.83,0,0,1,0-.33h0a1.83,1.83,0,0,1,0,.33,4.28,4.28,0,0,1-8.55,0Z" transform="translate(-17.89 -17.05)"/><path class="cls-1" d="M17.89,88.68a4.27,4.27,0,0,1,3.21-4.14v-.06a6.21,6.21,0,0,0,5.29-5.92h.13a6.24,6.24,0,0,0,5,5.87v0a4.27,4.27,0,1,1-5,4.21,1.83,1.83,0,0,1,0-.33h-.05a1.83,1.83,0,0,1,0,.33,4.28,4.28,0,0,1-8.56,0Z" transform="translate(-17.89 -17.05)"/><path class="cls-1" d="M62.11,21.32a4.27,4.27,0,0,1-3.21,4.14v.06a6.21,6.21,0,0,0-5.29,5.92h-.13a6.24,6.24,0,0,0-5-5.87v0a4.27,4.27,0,1,1,5-4.21,1.83,1.83,0,0,1,0,.33h0a1.83,1.83,0,0,1,0-.33,4.28,4.28,0,0,1,8.56,0Z" transform="translate(-17.89 -17.05)"/></svg>