<svg id="cards" xmlns="http://www.w3.org/2000/svg" viewBox="0 0 44.21 75.9"><path d="M17.89,27.8a3.94,3.94,0,0,1,5.9-3.42A3.93,3.93,0,1,1,29.71,21a.92.92,0,0,1,0,.16,3.9,3.9,0,0,1-2.06,3.3h0a3.82,3.82,0,0,1,2.06-.6A3.94,3.94,0,1,1,26,29.19a3.91,3.91,0,0,0,2.13,3.3h-4.8a4,4,0,0,0,2.14-3.31,3.94,3.94,0,0,1-7.62-1.38Z" transform="translate(-17.89 -17.05)"/><path d="M46.35,27.8a3.94,3.94,0,0,1,5.9-3.42A3.93,3.93,0,1,1,58.17,21a.92.92,0,0,1,0,.16,3.9,3.9,0,0,1-2.06,3.3h0a3.82,3.82,0,0,1,2.06-.6,3.94,3.94,0,1,1-3.67,5.33,3.91,3.91,0,0,0,2.13,3.3h-4.8A4,4,0,0,0,54,29.18a3.94,3.94,0,0,1-7.62-1.38Z" transform="translate(-17.89 -17.05)"/><path d="M17.89,48a3.94,3.94,0,0,1,5.9-3.41,3.94,3.94,0,1,1,5.92-3.4.86.86,0,0,1,0,.16,3.89,3.89,0,0,1-2.06,3.3h0A3.81,3.81,0,0,1,29.71,44,3.94,3.94,0,1,1,26,49.35a3.89,3.89,0,0,0,2.13,3.29h-4.8a3.92,3.92,0,0,0,2.14-3.31A3.93,3.93,0,0,1,17.89,48Z" transform="translate(-17.89 -17.05)"/><path d="M32.12,58a3.93,3.93,0,0,1,3.94-3.94,4,4,0,0,1,2,.52,3.93,3.93,0,1,1,5.92-3.39.92.92,0,0,1,0,.16,3.9,3.9,0,0,1-2.06,3.3h0a3.82,3.82,0,0,1,2.06-.6,3.94,3.94,0,1,1-3.67,5.34,3.91,3.91,0,0,0,2.13,3.29H37.6a3.93,3.93,0,0,0,2.14-3.31A3.94,3.94,0,0,1,32.12,58Z" transform="translate(-17.89 -17.05)"/><path d="M46.35,48a3.94,3.94,0,0,1,5.9-3.41,3.94,3.94,0,1,1,5.92-3.4.86.86,0,0,1,0,.16,3.89,3.89,0,0,1-2.06,3.3h0A3.81,3.81,0,0,1,58.17,44a3.94,3.94,0,1,1-3.67,5.33,3.89,3.89,0,0,0,2.13,3.29h-4.8A3.92,3.92,0,0,0,54,49.33,3.93,3.93,0,0,1,46.35,48Z" transform="translate(-17.89 -17.05)"/><path d="M62.11,82.2a3.94,3.94,0,0,1-5.9,3.42A3.93,3.93,0,1,1,50.29,89a.92.92,0,0,1,0-.16,3.9,3.9,0,0,1,2.06-3.3h0a3.82,3.82,0,0,1-2.06.6A3.94,3.94,0,1,1,54,80.81a3.91,3.91,0,0,0-2.13-3.3h4.8a4,4,0,0,0-2.14,3.31,3.94,3.94,0,0,1,7.62,1.38Z" transform="translate(-17.89 -17.05)"/><path d="M33.65,82.2a3.94,3.94,0,0,1-5.9,3.42A3.93,3.93,0,1,1,21.83,89a.92.92,0,0,1,0-.16,3.9,3.9,0,0,1,2.06-3.3h0a3.82,3.82,0,0,1-2.06.6,3.94,3.94,0,1,1,3.67-5.33,3.91,3.91,0,0,0-2.13-3.3h4.8A4,4,0,0,0,26,80.82a3.94,3.94,0,0,1,7.62,1.38Z" transform="translate(-17.89 -17.05)"/><path d="M62.11,62.05a3.94,3.94,0,0,1-5.9,3.41,3.94,3.94,0,1,1-5.92,3.4.86.86,0,0,1,0-.16,3.89,3.89,0,0,1,2.06-3.3h0a3.81,3.81,0,0,1-2.06.59A3.94,3.94,0,1,1,54,60.65a3.89,3.89,0,0,0-2.13-3.29h4.8a3.92,3.92,0,0,0-2.14,3.31,3.93,3.93,0,0,1,7.62,1.38Z" transform="translate(-17.89 -17.05)"/><path d="M33.65,62.05a3.94,3.94,0,0,1-5.9,3.41,3.94,3.94,0,1,1-5.92,3.4.86.86,0,0,1,0-.16,3.89,3.89,0,0,1,2.06-3.3h0a3.81,3.81,0,0,1-2.06.59,3.94,3.94,0,1,1,3.67-5.33,3.89,3.89,0,0,0-2.13-3.29h4.8A3.92,3.92,0,0,0,26,60.67a3.93,3.93,0,0,1,7.62,1.38Z" transform="translate(-17.89 -17.05)"/></svg>