<svg id="cards" xmlns="http://www.w3.org/2000/svg" viewBox="0 0 44.21 75.9"><path d="M62.11,83.37a4,4,0,0,1-3,3.91v.06a5.89,5.89,0,0,0-5,5.61h-.13a5.91,5.91,0,0,0-4.7-5.56v0A4,4,0,1,1,53.74,82a4.09,4.09,0,0,0-2.2-3.46h4.93a4.06,4.06,0,0,0-2.2,3.44,4.05,4.05,0,0,1,7.84,1.44Z" transform="translate(-17.89 -17.05)"/><path d="M17.89,47.11a4,4,0,0,1,3-3.91v-.06a5.89,5.89,0,0,0,5-5.61h.13a5.91,5.91,0,0,0,4.7,5.56v0a4,4,0,1,1-4.51,5.4A4.08,4.08,0,0,0,28.46,52H23.53a4,4,0,0,0,2.2-3.44,4.05,4.05,0,0,1-7.84-1.44Z" transform="translate(-17.89 -17.05)"/><path d="M34.1,83.37a4,4,0,0,1-3,3.91v.06a5.88,5.88,0,0,0-5,5.61h-.13a5.91,5.91,0,0,0-4.71-5.56v0A4,4,0,1,1,25.73,82a4.06,4.06,0,0,0-2.19-3.46h4.93a4.06,4.06,0,0,0-2.2,3.44,4,4,0,0,1,7.83,1.44Z" transform="translate(-17.89 -17.05)"/><path d="M62.11,62.89a4,4,0,0,1-3,3.91v.06a5.89,5.89,0,0,0-5,5.61h-.13a5.91,5.91,0,0,0-4.7-5.56v0a4,4,0,1,1,4.51-5.4A4.08,4.08,0,0,0,51.54,58h4.93a4,4,0,0,0-2.2,3.44,4.05,4.05,0,0,1,7.84,1.44Z" transform="translate(-17.89 -17.05)"/><path d="M34.1,62.89a4,4,0,0,1-3,3.91v.06a5.88,5.88,0,0,0-5,5.61h-.13a5.91,5.91,0,0,0-4.71-5.56v0a4,4,0,1,1,4.51-5.4A4,4,0,0,0,23.54,58h4.93a4,4,0,0,0-2.2,3.44,4,4,0,0,1,7.83,1.44Z" transform="translate(-17.89 -17.05)"/><path d="M17.89,26.63a4,4,0,0,1,3-3.91v-.06a5.89,5.89,0,0,0,5-5.61h.13a5.91,5.91,0,0,0,4.7,5.56v0a4,4,0,1,1-4.51,5.4,4.09,4.09,0,0,0,2.2,3.46H23.53a4.06,4.06,0,0,0,2.2-3.44,4.05,4.05,0,0,1-7.84-1.44Z" transform="translate(-17.89 -17.05)"/><path d="M45.9,47.11a4,4,0,0,1,3-3.91v-.06a5.88,5.88,0,0,0,5-5.61h.13a5.91,5.91,0,0,0,4.71,5.56v0a4,4,0,1,1-4.51,5.4A4,4,0,0,0,56.46,52H51.53a4,4,0,0,0,2.2-3.44,4,4,0,0,1-7.83-1.44Z" transform="translate(-17.89 -17.05)"/><path d="M31.9,57.35a4,4,0,0,1,3-3.91v-.06a5.89,5.89,0,0,0,5-5.61h.13a5.91,5.91,0,0,0,4.71,5.56v0a4,4,0,1,1-4.52,5.4,4.08,4.08,0,0,0,2.2,3.46H37.53a4,4,0,0,0,2.2-3.44,4,4,0,0,1-7.83-1.44Z" transform="translate(-17.89 -17.05)"/><path d="M45.9,26.63a4,4,0,0,1,3-3.91v-.06a5.88,5.88,0,0,0,5-5.61h.13a5.91,5.91,0,0,0,4.71,5.56v0a4,4,0,1,1-4.51,5.4,4.06,4.06,0,0,0,2.19,3.46H51.53a4.06,4.06,0,0,0,2.2-3.44,4,4,0,0,1-7.83-1.44Z" transform="translate(-17.89 -17.05)"/></svg>