<svg id="cards" xmlns="http://www.w3.org/2000/svg" viewBox="0 0 63.55 62.28"><defs><style>.cls-1{fill:#fff;opacity:0.5;}</style></defs><path d="M8.23,67.22A15.89,15.89,0,0,1,32,53.44,15.88,15.88,0,1,1,55.9,39.74a3.44,3.44,0,0,1,0,.64A15.77,15.77,0,0,1,47.53,53.7l0,0a15.56,15.56,0,0,1,8.33-2.4A15.88,15.88,0,1,1,41.09,72.86a15.78,15.78,0,0,0,8.58,13.28H30.33A15.82,15.82,0,0,0,39,72.79,15.86,15.86,0,0,1,8.23,67.22Z" transform="translate(-8.23 -23.86)"/><path class="cls-1" d="M36.53,84A8.29,8.29,0,0,0,40,77.79h.1A8.26,8.26,0,0,0,43.47,84Z" transform="translate(-8.23 -23.86)"/><path class="cls-1" d="M13.49,65A13.27,13.27,0,0,1,26.73,51.76a1,1,0,0,1,.3,0A12.86,12.86,0,0,1,32.22,53a13.24,13.24,0,1,1,21-10.7,3.26,3.26,0,0,1,0,.54A13,13,0,0,1,47.7,53a13.66,13.66,0,0,1,5.54-1.24h0A13.24,13.24,0,1,1,40,65a2.06,2.06,0,0,1,0-.35H40A2.06,2.06,0,0,1,40,65a13.24,13.24,0,0,1-26.48,0Z" transform="translate(-8.23 -23.86)"/><path d="M17.63,63.23A11.2,11.2,0,0,1,28.8,52.05a.69.69,0,0,1,.25,0,10.82,10.82,0,0,1,4.38,1,11.17,11.17,0,1,1,17.74-9,3.54,3.54,0,0,1,0,.46A11,11,0,0,1,46.5,53.1a11.53,11.53,0,0,1,4.67-1.05h0A11.18,11.18,0,1,1,40,63.23a1,1,0,0,1,0-.3H40a1,1,0,0,1,0,.3,11.18,11.18,0,0,1-22.35,0Z" transform="translate(-8.23 -23.86)"/></svg>