<svg id="cards" xmlns="http://www.w3.org/2000/svg" viewBox="0 0 66.13 62.72"><defs><style>.cls-1{fill:#940b00;}.cls-2{fill:#fff;opacity:0.5;}</style></defs><path class="cls-1" d="M73.07,54.25v.14a33.24,33.24,0,0,0-32.59,32H40.2a33.35,33.35,0,0,0-33.27-32A33.42,33.42,0,0,0,40.14,23.64h.41A33.26,33.26,0,0,0,73.07,54.25Z" transform="translate(-6.93 -23.64)"/><path class="cls-2" d="M61.34,54.52v.08a21.46,21.46,0,0,0-21,20.64h-.18A21.52,21.52,0,0,0,18.66,54.56a21.56,21.56,0,0,0,21.43-19.8h.26A21.48,21.48,0,0,0,61.34,54.52Z" transform="translate(-6.93 -23.64)"/><path class="cls-1" d="M51.41,54.74v0a11.48,11.48,0,0,0-11.25,11h-.09A11.51,11.51,0,0,0,28.59,54.76,11.52,11.52,0,0,0,40.05,44.18h.14A11.48,11.48,0,0,0,51.41,54.74Z" transform="translate(-6.93 -23.64)"/></svg>