<svg id="cards" xmlns="http://www.w3.org/2000/svg" viewBox="0 0 65.8 55.33"><defs><style>.cls-1{fill:#940b00;}.cls-2{fill:#fff;opacity:0.5;}</style></defs><path class="cls-1" d="M72.9,43.77A16.4,16.4,0,0,1,60.56,59.66v.24A23.91,23.91,0,0,0,40.23,82.67h-.5A24,24,0,0,0,20.62,60.1v-.17A16.43,16.43,0,1,1,40,43.77,7.43,7.43,0,0,1,39.9,45h.17A7.43,7.43,0,0,1,40,43.77a16.45,16.45,0,0,1,32.9,0Z" transform="translate(-7.1 -27.33)"/><path class="cls-2" d="M67.51,45.61A13.73,13.73,0,0,1,57.19,58.9v.19a20,20,0,0,0-17,19h-.42a20.09,20.09,0,0,0-16-18.87v-.14A13.73,13.73,0,1,1,40,45.61a7.11,7.11,0,0,1,0,1h.14a5.94,5.94,0,0,1-.06-1,13.76,13.76,0,0,1,27.51,0Z" transform="translate(-7.1 -27.33)"/><path class="cls-1" d="M62.51,47.31a11.22,11.22,0,0,1-8.45,10.88v.16a16.37,16.37,0,0,0-13.9,15.58h-.34A16.43,16.43,0,0,0,26.74,58.49v-.12A11.24,11.24,0,1,1,40,47.31a4.79,4.79,0,0,1,0,.85h.12a4.79,4.79,0,0,1,0-.85,11.26,11.26,0,0,1,22.51,0Z" transform="translate(-7.1 -27.33)"/></svg>