<svg id="cards" xmlns="http://www.w3.org/2000/svg" viewBox="0 0 70.2 62.61"><defs><style>.cls-1{fill:#fff;opacity:0.5;}</style></defs><path d="M4.9,65.2a17.5,17.5,0,0,1,13.17-17V48a25.54,25.54,0,0,0,21.68-24.3h.54A25.6,25.6,0,0,0,60.68,47.77V48A17.53,17.53,0,1,1,41.14,71.31a17.65,17.65,0,0,0,9.52,15H29.3a17.44,17.44,0,0,0,9.52-14.89A17.53,17.53,0,0,1,4.9,65.2Z" transform="translate(-4.9 -23.69)"/><path class="cls-1" d="M36.28,84a8.88,8.88,0,0,0,3.66-6.67h.12A8.83,8.83,0,0,0,43.72,84Z" transform="translate(-4.9 -23.69)"/><path class="cls-1" d="M10.53,63.4A14.7,14.7,0,0,1,21.59,49.16V49a21.42,21.42,0,0,0,18.2-20.4h.45A21.5,21.5,0,0,0,57.36,48.77v.15A14.72,14.72,0,1,1,40,63.4a6.89,6.89,0,0,1,.06-1.11h-.15A6.89,6.89,0,0,1,40,63.4a14.74,14.74,0,0,1-29.47,0Z" transform="translate(-4.9 -23.69)"/><path d="M15.89,61.57a12,12,0,0,1,9-11.65v-.17a17.54,17.54,0,0,0,14.9-16.69h.37a17.59,17.59,0,0,0,14,16.54v.12A12,12,0,1,1,40,61.57a5.49,5.49,0,0,1,0-.91H40a5.49,5.49,0,0,1,0,.91,12.06,12.06,0,0,1-24.11,0Z" transform="translate(-4.9 -23.69)"/></svg>