<svg id="paz" xmlns="http://www.w3.org/2000/svg" viewBox="0 0 52.25 100.37"><defs><style>.cls-1,.cls-14{fill:#f2d6bd;}.cls-1,.cls-11,.cls-12,.cls-13,.cls-14,.cls-15,.cls-16,.cls-2,.cls-3,.cls-4,.cls-5,.cls-6,.cls-7,.cls-8,.cls-9{stroke:#000;}.cls-1,.cls-2,.cls-3,.cls-4,.cls-5,.cls-6,.cls-8,.cls-9{stroke-linecap:round;stroke-linejoin:round;}.cls-1,.cls-11,.cls-12,.cls-13,.cls-14,.cls-15,.cls-16,.cls-2,.cls-3,.cls-5,.cls-6,.cls-7,.cls-8,.cls-9{stroke-width:0.5px;}.cls-2,.cls-4{fill:#2a1500;}.cls-15,.cls-3{fill:none;}.cls-4{stroke-width:0.49px;}.cls-5{fill:#fff;}.cls-11,.cls-6{fill:#0c013a;}.cls-7{fill:#d49900;}.cls-11,.cls-12,.cls-13,.cls-14,.cls-15,.cls-16,.cls-7{stroke-miterlimit:10;}.cls-10,.cls-8{fill:#935e09;}.cls-16,.cls-9{fill:#1b1a5b;}.cls-12{fill:#bf7e43;}.cls-13{fill:#eb4034;}</style></defs><path class="cls-1" d="M35.52,13.75a10.43,10.43,0,0,0-2,2.83c-1,1.93-.75,2.75-.69,3a2.53,2.53,0,0,0,.62,1,5.93,5.93,0,0,0-.89,1.24,6.1,6.1,0,0,0-.69,3.17l1.79.48a4.57,4.57,0,0,0-.21,1.73,8.77,8.77,0,0,1,.21,1.44c0,.66-.21.86-.07,1.17s.51.45,1.17.62c2,.5,2.37.26,2.62.62.41.59-.54,1.39-.14,2.76a2,2,0,0,0,.42.83c1.26,1.26,6.19-.22,7.16-3,.37-1-.07-1.57.48-3a7.56,7.56,0,0,1,1.86-2.48,10.13,10.13,0,0,0,2.76-6.82A8.05,8.05,0,0,0,47.3,14.1C43.9,11,38.22,11.29,35.52,13.75Z" transform="translate(-13.82 -5.1)"/><polygon class="cls-2" points="26.65 10.03 25.84 11.82 28.4 10.98 26.4 12.84 28.51 12.1 28.47 12.66 30.02 12.21 30.3 12.95 32.17 11.82 32.1 12.81 34 11.54 33.54 12.84 35.23 11.93 34.98 12.77 36.07 11.08 34.84 7.29 26.86 7.99 26.65 10.03"/><path class="cls-2" d="M33.71,18.44l-.28.7,1.86-.35,1.76.39-1.33-.85-.88-.1Z" transform="translate(-13.82 -5.1)"/><line class="cls-2" x1="25.41" y1="17.38" x2="26.72" y2="16.85"/><line class="cls-2" x1="26.4" y1="15.13" x2="27.7" y2="14.71"/><path class="cls-3" d="M41.48,20.79a1.34,1.34,0,0,1,1.44-.42,1.45,1.45,0,0,1,.6,1.66,3.51,3.51,0,0,1-.84,1.23c-.36.41-.48.47-.56.73-.15.46.08.68-.11,1a.88.88,0,0,1-.77.46.93.93,0,0,1-.71-.42" transform="translate(-13.82 -5.1)"/><path class="cls-3" d="M41.31,22c.34-.57.83-.77,1-.64s.18.63.18.67" transform="translate(-13.82 -5.1)"/><path class="cls-3" d="M40.85,24a.58.58,0,0,0,.25-1.13" transform="translate(-13.82 -5.1)"/><line class="cls-2" x1="25.8" y1="16.08" x2="26.93" y2="15.72"/><line class="cls-2" x1="26.54" y1="14.18" x2="28.23" y2="13.4"/><line class="cls-2" x1="28.58" y1="14.18" x2="29.74" y2="13.72"/><line class="cls-2" x1="30.16" y1="14.74" x2="31.39" y2="14.07"/><line class="cls-2" x1="30.58" y1="13.61" x2="31.64" y2="13.02"/><line class="cls-2" x1="32.69" y1="13.93" x2="33.85" y2="13.37"/><line class="cls-2" x1="34.56" y1="14.07" x2="35.54" y2="13.44"/><line class="cls-2" x1="32.48" y1="15.13" x2="33.57" y2="14.56"/><line class="cls-2" x1="34.49" y1="15.37" x2="35.4" y2="14.74"/><line class="cls-2" x1="35.61" y1="15.51" x2="35.19" y2="15.83"/><line class="cls-2" x1="33.5" y1="15.55" x2="32.66" y2="16.29"/><line class="cls-2" x1="31.04" y1="15.34" x2="30.23" y2="15.94"/><path class="cls-4" d="M34.24,19.67" transform="translate(-13.82 -5.1)"/><path class="cls-2" d="M34,19.77c.29,0,.61,0,.95,0s.68,0,1,0" transform="translate(-13.82 -5.1)"/><path class="cls-5" d="M34.46,20.42a.57.57,0,0,0-.22.46.6.6,0,0,0,.33.47c.35.17,1-.16,1.49-.83" transform="translate(-13.82 -5.1)"/><path class="cls-2" d="M34,20.34l.16,0s.45.07.9.11a12,12,0,0,0,1.51,0" transform="translate(-13.82 -5.1)"/><circle cx="20.77" cy="15.87" r="0.24"/><path class="cls-2" d="M33.21,25.94a3.53,3.53,0,0,0-.62,1.1s-.05-.14.86.08,1.34.34,1.34.34a7.33,7.33,0,0,0-.78-.84A7.46,7.46,0,0,0,33.21,25.94Z" transform="translate(-13.82 -5.1)"/><path class="cls-6" d="M50.18,17.53,51.4,8.28A24.7,24.7,0,0,0,35.88,5.66L34,14.88c2.32.63,4.89,1.22,7.7,1.69A80.45,80.45,0,0,0,50.18,17.53Z" transform="translate(-13.82 -5.1)"/><path class="cls-7" d="M34.33,13.15,34,14.88c2.32.63,4.89,1.22,7.7,1.69a80.45,80.45,0,0,0,8.5,1l.23-1.76a80,80,0,0,1-8.49-1C39.16,14.35,36.63,13.77,34.33,13.15Z" transform="translate(-13.82 -5.1)"/><path class="cls-8" d="M34.24,13.75,29.89,13c-.05,0-1-.16-1.25.28a.44.44,0,0,0-.07.29.64.64,0,0,0,.58.42l4.84.81Z" transform="translate(-13.82 -5.1)"/><path class="cls-9" d="M51.37,8.38l0-.1A24.69,24.69,0,0,0,36,5.65l0,.12a72.59,72.59,0,0,0,7.4,1.67A72.26,72.26,0,0,0,51.37,8.38Z" transform="translate(-13.82 -5.1)"/><path class="cls-8" d="M34.56,11.64l.82-3.82a2.25,2.25,0,0,1,.73,2.37A2.33,2.33,0,0,1,34.56,11.64Z" transform="translate(-13.82 -5.1)"/><circle class="cls-10" cx="23.16" cy="29.31" r="0.24"/><circle class="cls-10" cx="23.47" cy="30.16" r="0.24"/><path class="cls-11" d="M28.48,57.77l3.28-13.41a15.36,15.36,0,0,1,6.7-9.29c1.17-.7,5.36-3.19,8.61-1.53,3,1.53,3.51,5.69,4.19,10.67a37.72,37.72,0,0,1,.16,8.58q-1.65,6.72-3.29,13.43a15.42,15.42,0,0,1-6.7,9.3c-1.17.69-5.37,3.19-8.61,1.52-2.95-1.52-3.52-5.68-4.19-10.66a37.42,37.42,0,0,1-.15-8.69" transform="translate(-13.82 -5.1)"/><path class="cls-6" d="M35.9,33.91l.85,2.43a19.86,19.86,0,0,0,5.44-1.2,19.29,19.29,0,0,0,4.25-2.2l-1-2.47c-1.38.62-2.88,1.23-4.48,1.82C39.21,32.94,37.5,33.47,35.9,33.91Z" transform="translate(-13.82 -5.1)"/><path class="cls-12" d="M21.49,32.94a.91.91,0,0,1-.46,0,.93.93,0,0,1-.47-1.07h0c-.17.19-.38.29-.55.21s-.29-.5-.12-.88a.35.35,0,0,1,.05-.08.14.14,0,0,1,0-.06.58.58,0,0,1-.18,0,.66.66,0,0,1-.32-.89.69.69,0,0,1,.37-.36,2.54,2.54,0,0,0-.38-.16c-1.86-.55-4.08,1.39-5,4.33s-.09,5.79,1.77,6.35,4.08-1.39,5-4.33A8,8,0,0,0,21.49,32.94Zm-4.08,3.24c-.44-.13-.63-.82-.42-1.52s.74-1.17,1.19-1,.63.81.42,1.52S17.86,36.31,17.41,36.18Z" transform="translate(-13.82 -5.1)"/><path class="cls-13" d="M20.4,34.28c.1-.43-.34-.59-.28-1.07s.29-.45.53-.69a1,1,0,0,1-.09-.69h0c-.17.19-.38.29-.55.21s-.29-.5-.12-.88a.35.35,0,0,1,.05-.08.14.14,0,0,1,0-.06.58.58,0,0,1-.18,0,.62.62,0,0,1-.35-.41.89.89,0,0,1-.56.16c-.52,0-.6-.46-1-.44-.58,0-1,.83-1,.87-.22.48,0,.79-.3,1.15s-.59.19-1,.55a1.92,1.92,0,0,0-.62,1.49c0,.65.4.72.35,1.26s-.58.78-.52,1.31a1.16,1.16,0,0,0,.69.85c.46.19.68-.14,1.11,0s.51.93.94,1,.94-.44,1.1-1-.08-.64.12-1,.64-.24.86-.6-.11-.59.06-1.06S20.29,34.75,20.4,34.28Zm-3,1.9c-.44-.13-.63-.82-.42-1.52s.74-1.17,1.19-1,.63.81.42,1.52S17.86,36.31,17.41,36.18Z" transform="translate(-13.82 -5.1)"/><path class="cls-14" d="M20.28,44.91a5.41,5.41,0,0,0-1.4-2.3c-1.22-1.19-2.8-1.49-2.87-2.43,0-.07,0-.43,0-1.15a1.89,1.89,0,0,1,.08-.62,1.52,1.52,0,0,1,.62-.74,1.53,1.53,0,0,1,.08-.86,1.34,1.34,0,0,1,.33-.49,1.53,1.53,0,0,1,.57-.37A2.88,2.88,0,0,1,18,35a1.1,1.1,0,0,1,.45-.57,1.13,1.13,0,0,1,1,.08l.41.24.7-.86a2.87,2.87,0,0,1,1.19.29,2.34,2.34,0,0,1,.45.29A6,6,0,0,1,24,36a3.47,3.47,0,0,1,.37,1.6c.08.93.18,2.11.33,3.78Z" transform="translate(-13.82 -5.1)"/><path class="cls-15" d="M21.27,35.66a1.54,1.54,0,0,0-.74-.82,1.39,1.39,0,0,0-.62-.13" transform="translate(-13.82 -5.1)"/><path class="cls-7" d="M34,44.06l.68,1.29,1.52-.84.08-2.43-2.13-.16Z" transform="translate(-13.82 -5.1)"/><path class="cls-16" d="M19.26,46.19a6.56,6.56,0,0,1,6.63-4.72l7.16,8.15,3.81-7.16a6.71,6.71,0,0,1,3.35-3.35c.66-.29,2.65-1.15,4.27-.16s2.2,3.19,1.52,5.49l-4.72,9a10.32,10.32,0,0,1-2.67,3.65,7.08,7.08,0,0,1-2.89,1.68,5.63,5.63,0,0,1-3,.07,7.26,7.26,0,0,1-2.74-1.67,15.05,15.05,0,0,1-1.68-1.6Z" transform="translate(-13.82 -5.1)"/><path class="cls-13" d="M25.89,41.47a6.56,6.56,0,0,0-6.63,4.72l1.61,1.67a8.31,8.31,0,0,1,2.28-3.35A7,7,0,0,1,27.23,43C26.78,42.48,26.34,42,25.89,41.47Z" transform="translate(-13.82 -5.1)"/><path class="cls-1" d="M44.37,96.83a10.11,10.11,0,0,0,2-2.82c1-1.94.76-2.76.69-3a2.36,2.36,0,0,0-.62-1,5.68,5.68,0,0,0,.9-1.24A6.08,6.08,0,0,0,48,85.67l-1.79-.48a4.3,4.3,0,0,0,.2-1.72,7.79,7.79,0,0,1-.2-1.45c0-.66.21-.86.07-1.17s-.51-.45-1.18-.62c-1.94-.5-2.36-.25-2.61-.62-.41-.58.53-1.39.13-2.75a1.85,1.85,0,0,0-.41-.83c-1.26-1.26-6.19.21-7.16,3-.37,1,.07,1.57-.49,3a7.19,7.19,0,0,1-1.86,2.48A10.17,10.17,0,0,0,30,91.25a8,8,0,0,0,2.62,5.24C36,99.59,41.67,99.29,44.37,96.83Z" transform="translate(-13.82 -5.1)"/><polygon class="cls-2" points="25.61 90.35 26.42 88.55 23.85 89.4 25.85 87.53 23.74 88.27 23.78 87.71 22.23 88.17 21.95 87.43 20.09 88.55 20.16 87.57 18.26 88.83 18.71 87.53 17.03 88.45 17.27 87.6 16.18 89.29 17.41 93.09 25.4 92.39 25.61 90.35"/><path class="cls-2" d="M46.18,92.15l.28-.71-1.87.35-1.75-.38,1.33.84.88.11Z" transform="translate(-13.82 -5.1)"/><line class="cls-2" x1="26.84" y1="83" x2="25.54" y2="83.52"/><line class="cls-2" x1="25.85" y1="85.25" x2="24.55" y2="85.67"/><path class="cls-3" d="M38.41,89.79a1.35,1.35,0,0,1-1.45.42,1.44,1.44,0,0,1-.59-1.65,3.34,3.34,0,0,1,.84-1.23c.36-.42.48-.48.56-.74.15-.45-.08-.67.11-1a.88.88,0,0,1,.77-.46.94.94,0,0,1,.7.42" transform="translate(-13.82 -5.1)"/><path class="cls-3" d="M38.58,88.63c-.34.57-.83.77-1,.63s-.18-.62-.18-.67" transform="translate(-13.82 -5.1)"/><path class="cls-3" d="M39,86.55a.61.61,0,0,0-.63.53.59.59,0,0,0,.38.6" transform="translate(-13.82 -5.1)"/><line class="cls-2" x1="26.45" y1="84.3" x2="25.33" y2="84.65"/><line class="cls-2" x1="25.71" y1="86.2" x2="24.02" y2="86.97"/><line class="cls-2" x1="23.67" y1="86.2" x2="22.51" y2="86.65"/><line class="cls-2" x1="22.09" y1="85.63" x2="20.86" y2="86.3"/><line class="cls-2" x1="21.67" y1="86.76" x2="20.61" y2="87.36"/><line class="cls-2" x1="19.56" y1="86.44" x2="18.4" y2="87.01"/><line class="cls-2" x1="17.69" y1="86.3" x2="16.71" y2="86.94"/><line class="cls-2" x1="19.77" y1="85.25" x2="18.68" y2="85.81"/><line class="cls-2" x1="17.77" y1="85" x2="16.85" y2="85.63"/><line class="cls-2" x1="16.64" y1="84.86" x2="17.06" y2="84.54"/><line class="cls-2" x1="18.75" y1="84.83" x2="19.59" y2="84.09"/><line class="cls-2" x1="21.21" y1="85.04" x2="22.02" y2="84.44"/><path class="cls-4" d="M45.65,90.92" transform="translate(-13.82 -5.1)"/><path class="cls-2" d="M45.86,90.81c-.3,0-.61,0-1,0s-.68,0-1,0" transform="translate(-13.82 -5.1)"/><path class="cls-5" d="M45.43,90.17a.61.61,0,0,0,.22-.46.6.6,0,0,0-.33-.48c-.36-.17-1,.16-1.49.84" transform="translate(-13.82 -5.1)"/><path class="cls-2" d="M45.9,90.25l-.16,0a8.52,8.52,0,0,0-.9-.11,9,9,0,0,0-1.51,0" transform="translate(-13.82 -5.1)"/><circle cx="31.49" cy="84.5" r="0.24"/><path class="cls-2" d="M46.68,84.65a3.68,3.68,0,0,0,.62-1.1s.05.13-.87-.08-1.33-.34-1.33-.34a9.38,9.38,0,0,0,.77.84C46.15,84.23,46.43,84.46,46.68,84.65Z" transform="translate(-13.82 -5.1)"/><path class="cls-6" d="M29.71,93.06l-1.22,9.25a25.15,25.15,0,0,0,7.67,2.6,24.52,24.52,0,0,0,7.85,0l1.9-9.22C43.59,95.07,41,94.48,38.2,94A79.81,79.81,0,0,0,29.71,93.06Z" transform="translate(-13.82 -5.1)"/><path class="cls-7" d="M45.55,97.43l.36-1.73C43.59,95.07,41,94.48,38.2,94a79.81,79.81,0,0,0-8.49-1l-.24,1.76a80,80,0,0,1,8.5,1C40.73,96.24,43.26,96.81,45.55,97.43Z" transform="translate(-13.82 -5.1)"/><path class="cls-8" d="M45.65,96.83l4.35.71s1,.16,1.25-.28a.41.41,0,0,0,.07-.28.64.64,0,0,0-.58-.43l-4.84-.81Z" transform="translate(-13.82 -5.1)"/><path class="cls-9" d="M28.51,102.2l0,.11a24.59,24.59,0,0,0,15.45,2.62l0-.11a73.09,73.09,0,0,0-7.4-1.68A74.59,74.59,0,0,0,28.51,102.2Z" transform="translate(-13.82 -5.1)"/><path class="cls-8" d="M45.33,98.94l-.82,3.82a2.24,2.24,0,0,1-.73-2.36A2.35,2.35,0,0,1,45.33,98.94Z" transform="translate(-13.82 -5.1)"/><circle class="cls-10" cx="29.09" cy="71.07" r="0.24"/><circle class="cls-10" cx="28.78" cy="70.22" r="0.24"/><path class="cls-6" d="M44,76.68l-.85-2.44a19.84,19.84,0,0,0-5.45,1.2,20.08,20.08,0,0,0-4.24,2.2l1,2.47c1.38-.62,2.88-1.23,4.48-1.81C40.68,77.65,42.39,77.11,44,76.68Z" transform="translate(-13.82 -5.1)"/><path class="cls-12" d="M58.4,77.64a.81.81,0,0,1,.46,0,.92.92,0,0,1,.47,1.07h0a.52.52,0,0,1,.55-.21c.24.11.3.5.13.89a.18.18,0,0,1-.05.07s0,0,0,.06l.19,0a.67.67,0,0,1,.32.89.64.64,0,0,1-.38.36,1.88,1.88,0,0,0,.39.16c1.86.56,4.08-1.38,5-4.33s.09-5.79-1.77-6.34-4.08,1.38-5,4.33A8,8,0,0,0,58.4,77.64Zm4.08-3.23c.44.13.63.81.42,1.52s-.74,1.17-1.19,1-.63-.81-.42-1.52S62,74.27,62.48,74.41Z" transform="translate(-13.82 -5.1)"/><path class="cls-13" d="M59.49,76.3c-.1.43.34.59.28,1.07-.05.33-.29.46-.53.69a1,1,0,0,1,.09.7h0a.52.52,0,0,1,.55-.21c.24.11.3.5.13.89a.18.18,0,0,1-.05.07s0,0,0,.06l.19,0a.64.64,0,0,1,.35.42.87.87,0,0,1,.56-.16c.52,0,.6.45,1,.43s1-.82,1-.86c.22-.48,0-.79.3-1.16s.59-.18,1-.55A2,2,0,0,0,65,76.24c0-.64-.4-.71-.35-1.26s.57-.78.51-1.3a1.12,1.12,0,0,0-.69-.85c-.45-.19-.68.13-1.1,0-.58-.22-.51-.93-.94-1s-.95.43-1.11.95.09.64-.11,1-.65.23-.86.6.11.59-.06,1S59.59,75.84,59.49,76.3Zm3-1.89c.44.13.63.81.42,1.52s-.74,1.17-1.19,1-.63-.81-.42-1.52S62,74.27,62.48,74.41Z" transform="translate(-13.82 -5.1)"/><path class="cls-14" d="M59.61,65.68A5.58,5.58,0,0,0,61,68c1.23,1.18,2.81,1.49,2.88,2.42,0,.08,0,.44,0,1.15a1.89,1.89,0,0,1-.08.62,1.52,1.52,0,0,1-.62.74,1.53,1.53,0,0,1-.08.86,1.44,1.44,0,0,1-.33.5,1.67,1.67,0,0,1-.57.37,2.84,2.84,0,0,1-.29,1,1.23,1.23,0,0,1-.45.58,1.19,1.19,0,0,1-1-.08L60,75.87l-.7.86a2.68,2.68,0,0,1-1.19-.28,3.79,3.79,0,0,1-.46-.29,6,6,0,0,1-1.72-1.61,3.32,3.32,0,0,1-.37-1.6c-.08-.93-.18-2.11-.33-3.78Z" transform="translate(-13.82 -5.1)"/><path class="cls-15" d="M58.62,74.92a1.47,1.47,0,0,0,.74.83,1.51,1.51,0,0,0,.62.12" transform="translate(-13.82 -5.1)"/><path class="cls-7" d="M45.92,66.53l-.68-1.3-1.53.84-.07,2.44,2.13.15Z" transform="translate(-13.82 -5.1)"/><path class="cls-16" d="M60.62,64.4A6.56,6.56,0,0,1,54,69.12L46.84,61,43,68.13a6.74,6.74,0,0,1-3.35,3.35c-.66.28-2.65,1.14-4.27.15s-2.2-3.18-1.52-5.48l4.72-9a10.34,10.34,0,0,1,2.67-3.66,7.08,7.08,0,0,1,2.89-1.67,5.61,5.61,0,0,1,3-.08A7.17,7.17,0,0,1,50,53.43,14.19,14.19,0,0,1,51.64,55Z" transform="translate(-13.82 -5.1)"/><path class="cls-13" d="M54,69.12a6.56,6.56,0,0,0,6.62-4.72L59,62.72a8.35,8.35,0,0,1-2.28,3.35,7,7,0,0,1-4.08,1.52Z" transform="translate(-13.82 -5.1)"/></svg>