<svg id="kralj" xmlns="http://www.w3.org/2000/svg" viewBox="0 0 35.88 102.74"><defs><style>.cls-1{fill:#0c013a;}.cls-1,.cls-10,.cls-11,.cls-12,.cls-13,.cls-2,.cls-3,.cls-4,.cls-5,.cls-6,.cls-7,.cls-8,.cls-9{stroke:#000;stroke-width:0.5px;}.cls-1,.cls-10,.cls-13,.cls-2,.cls-3,.cls-4,.cls-6,.cls-8,.cls-9{stroke-linecap:round;}.cls-1,.cls-13,.cls-2,.cls-3,.cls-4,.cls-6,.cls-9{stroke-linejoin:round;}.cls-10,.cls-2{fill:#fff;}.cls-3{fill:#eb4034;}.cls-4{fill:#1b1a5b;}.cls-5{fill:#edb485;}.cls-10,.cls-11,.cls-12,.cls-5,.cls-7,.cls-8{stroke-miterlimit:10;}.cls-6{fill:#bc111d;}.cls-7{fill:#eacbac;}.cls-13,.cls-8{fill:none;}.cls-9{fill:#2a1500;}.cls-11{fill:#935e09;}.cls-12{fill:#d49900;}</style></defs><path class="cls-1" d="M24.3,56.06A5.66,5.66,0,0,1,24,58.24C23.55,59.79,20.5,71,21.41,74.45c0,0,11.62,3.26,17.52,2.89,5.9.37,17.52-2.89,17.52-2.89.91-3.42-2.14-14.66-2.62-16.21a5.57,5.57,0,0,1-.27-2.2,5.63,5.63,0,0,1,.27-2.17c.48-1.55,3.53-12.79,2.62-16.22,0,0-11.63-3.25-17.52-2.89-5.9-.36-17.52,2.89-17.52,2.89C20.5,41.08,23.55,52.32,24,53.87A5.51,5.51,0,0,1,24.3,56.06Z" transform="translate(-20.99 -4.68)"/><polygon class="cls-2" points="18.13 44.48 24.54 39.69 25.97 28.03 10.25 27.81 10.55 37.16 13.38 40.85 18.13 44.48"/><path class="cls-3" d="M35.92,34.82a3.91,3.91,0,0,1-.08,1.31c-.35,1.42-1.34,1.84-2,3.34a6.15,6.15,0,0,0-.51,1.9A9,9,0,0,0,33.91,46l5.14,3.76,3.46-3.22C45.42,45,46,43.84,45.94,43.06c-.07-1.15-1.48-1.45-2-3.42-.3-1.15,0-1.56-.34-2.66a5.29,5.29,0,0,0-1.73-2.37l-1.83.33-2.9-.5Z" transform="translate(-20.99 -4.68)"/><path class="cls-4" d="M38.93,48.64l0-.58s-9.61-7.67-5.23-12.41l1.09-6a25.67,25.67,0,0,0-7.3,2.67l1.71,2.56a15.27,15.27,0,0,0-3,4.62s2.56.85,5.6,5.48l-1.22,2.19s5-.88,8.38,2.58c3.34-3.46,8.37-2.58,8.37-2.58L46.09,45c3-4.63,5.59-5.48,5.59-5.48a15.13,15.13,0,0,0-3-4.62l1.71-2.56a25.67,25.67,0,0,0-7.3-2.67l1.09,6c4.38,4.74-5.23,12.41-5.23,12.41Z" transform="translate(-20.99 -4.68)"/><polygon class="cls-3" points="13.15 28.65 11.77 29.26 12.46 29.95 12.23 31.1 16.3 30.49 20.52 31.71 23.13 30.72 24.59 29.18 24.28 28.49 20.14 28.88 17.14 28.95 15.53 28.88 13.15 28.65"/><path class="cls-5" d="M43.7,27.64a8.35,8.35,0,0,0-.37,2.58A13.75,13.75,0,0,0,43.62,33l-4.69,1.11L34.23,33a13.32,13.32,0,0,0,.3-2.79,8.35,8.35,0,0,0-.37-2.58" transform="translate(-20.99 -4.68)"/><polygon class="cls-2" points="13 26.8 16.15 28.88 11.01 28.72 13 26.8"/><polygon class="cls-2" points="23.29 26.8 20.14 28.88 25.28 28.72 23.29 26.8"/><path class="cls-6" d="M38,35.34c0,1.27-.42,1.78-.77,2s-.74.21-1.15.61a2,2,0,0,0-.46.77" transform="translate(-20.99 -4.68)"/><path class="cls-3" d="M42.41,38.83s.38-.39.23-1.46S42,36.3,42,36.3s.38.53-.08,2.3-1,1.69-.53,3.3l.46,1.61" transform="translate(-20.99 -4.68)"/><path class="cls-3" d="M36.7,44.24a5.53,5.53,0,0,1-1.22-3.07A2.77,2.77,0,0,1,36.7,39" transform="translate(-20.99 -4.68)"/><polygon points="18.97 34.11 18.65 34.99 17.63 34.99 17.31 34.11 17.8 34.34 18.13 33.69 18.14 33.67 18.15 33.69 18.49 34.34 18.97 34.11"/><line class="cls-1" x1="17.94" y1="45.11" x2="17.94" y2="51.77"/><path class="cls-5" d="M31.09,22a.89.89,0,0,1-.71.64.82.82,0,0,1-.75-.3c-.26-.34-.08-.78,0-1.2.15-1.42-1.4-1.86-1.64-3.84A1.63,1.63,0,0,1,28.21,16a1.2,1.2,0,0,1,.9-.41A1.11,1.11,0,0,1,30,16a2.35,2.35,0,0,1,.26.5h0a2.87,2.87,0,0,1,.63-.09l.57,5.37Z" transform="translate(-20.99 -4.68)"/><path class="cls-5" d="M46.77,22a.89.89,0,0,0,.71.64.83.83,0,0,0,.75-.3c.26-.34.08-.78,0-1.2-.14-1.42,1.41-1.86,1.65-3.84A1.62,1.62,0,0,0,49.64,16a1.16,1.16,0,0,0-.89-.41,1.14,1.14,0,0,0-.9.41,2.67,2.67,0,0,0-.25.5h0a5.28,5.28,0,0,0-.77-.09L45.9,22.3l.73-.28" transform="translate(-20.99 -4.68)"/><path class="cls-7" d="M39.44,7.08c10.26.84,8.14,9.37,8.14,9.37L46.08,27c-1.62,1.39-4.46,3.35-4.46,3.35l-2.7-.14-2.7.14s-2.84-2-4.46-3.35L30.25,16.45S28.14,7.92,38.4,7.08Z" transform="translate(-20.99 -4.68)"/><path class="cls-8" d="M36.83,16.79a.73.73,0,0,1,.39.5,17.73,17.73,0,0,1,0,3.12c-.11.89-.44,1.39.56,1.56s.73-.22,2.4-1.22" transform="translate(-20.99 -4.68)"/><path class="cls-8" d="M40.07,20.08a.66.66,0,0,1,.72.72c0,.78-.83.84-.83.84" transform="translate(-20.99 -4.68)"/><polygon class="cls-9" points="11.16 11.49 13.39 11.27 14.95 11.82 15.57 11.1 14.23 10.48 13.11 10.48 11.16 11.49"/><polygon class="cls-9" points="19.36 11.49 21.03 11.21 23.15 11.54 21.53 10.54 20.14 10.43 18.75 10.76 19.36 11.49"/><path class="cls-2" d="M43.92,17.81s-.42.85-1.07.85-.78-.37-1.47-.17c-.3.09-.37,0-.39,0s.14-.42.32-.6a1.59,1.59,0,0,1,.58-.36,1.69,1.69,0,0,1,.49-.11,4,4,0,0,1,2.14.64h0" transform="translate(-20.99 -4.68)"/><circle cx="21.58" cy="13.31" r="0.31"/><circle cx="23.52" cy="6.52" r="0.19"/><path class="cls-10" d="M33,18c.45.61.83.75,1.11.76s.5-.2,1.07-.25.75.09.8,0-.62-1.05-1.58-1.09A2,2,0,0,0,33,18a2,2,0,0,0-.33.51" transform="translate(-20.99 -4.68)"/><circle cx="13.44" cy="13.31" r="0.31"/><path class="cls-9" d="M38.69,25.17a2,2,0,0,0-1.34-.52c-.93.05-1.18.92-2.3,1.09a2.13,2.13,0,0,1-1.67-.43,1.26,1.26,0,0,1-.47-1.13,1,1,0,0,1,1-.73c.33,0,.58.33.55.38s-.42-.21-.68,0a.53.53,0,0,0-.2.48c0,.37.43.56.53.61a1.17,1.17,0,0,0,.85,0c.34-.14.39-.4.67-.73a2.29,2.29,0,0,1,1.75-.88A2.07,2.07,0,0,1,38.7,24,2,2,0,0,1,40,23.29a2.29,2.29,0,0,1,1.75.88c.28.33.32.59.66.73a1.2,1.2,0,0,0,.86,0c.1-.05.49-.24.52-.61a.5.5,0,0,0-.19-.48c-.26-.16-.65.12-.68,0s.21-.35.54-.38a1,1,0,0,1,1,.73A1.26,1.26,0,0,1,44,25.31a2.14,2.14,0,0,1-1.67.43c-1.13-.17-1.37-1-2.3-1.09A2,2,0,0,0,38.69,25.17Z" transform="translate(-20.99 -4.68)"/><path d="M36.64,26.06a3.08,3.08,0,0,1,1.28-.34,7,7,0,0,1,1.62,0,4.29,4.29,0,0,1,1.22.27l.12,0a.08.08,0,0,1,0,.11.1.1,0,0,1-.09,0l-.19,0a1.66,1.66,0,0,0-.57,0,7.4,7.4,0,0,1-1.46.13c-.21,0-.2,0-1.31-.21h0c-.32,0-.49-.07-.56,0s-.07,0-.11,0l0,0A0,0,0,0,1,36.64,26.06Z" transform="translate(-20.99 -4.68)"/><circle cx="24.99" cy="9.61" r="0.19"/><circle cx="22.41" cy="6.83" r="0.19"/><circle cx="17.71" cy="24.17" r="0.19"/><circle cx="18.67" cy="24.65" r="0.19"/><circle cx="16.55" cy="24.21" r="0.19"/><circle cx="16.36" cy="23.41" r="0.19"/><circle cx="15.84" cy="24.88" r="0.19"/><circle cx="18.82" cy="23.56" r="0.19"/><circle cx="20.67" cy="22.98" r="0.19"/><circle cx="20.58" cy="24.62" r="0.19"/><circle cx="15.28" cy="24.16" r="0.19"/><circle cx="14.72" cy="23.17" r="0.19"/><circle cx="24.58" cy="7.28" r="0.19"/><circle cx="25.06" cy="8.12" r="0.19"/><circle cx="24.08" cy="8.17" r="0.19"/><circle cx="19.76" cy="23.99" r="0.19"/><circle cx="13.79" cy="23.65" r="0.19"/><circle cx="12.63" cy="23.02" r="0.19"/><circle cx="13.38" cy="22.5" r="0.19"/><circle cx="21.76" cy="23.62" r="0.19"/><circle cx="22.95" cy="22.08" r="0.19"/><circle cx="22.75" cy="23.09" r="0.19"/><circle cx="25.93" cy="10.5" r="0.19"/><circle cx="25.89" cy="8.43" r="0.19"/><circle cx="25" cy="6.3" r="0.19"/><circle cx="10.4" cy="7.17" r="0.19"/><circle cx="11.68" cy="6.87" r="0.19"/><circle cx="9.84" cy="9.67" r="0.19"/><circle cx="13.74" cy="6.86" r="0.19"/><circle cx="10.21" cy="8.48" r="0.19"/><circle cx="11.26" cy="8.1" r="0.19"/><circle cx="10.94" cy="6.06" r="0.19"/><circle cx="10.87" cy="9.52" r="0.19"/><path class="cls-11" d="M45.24,6.83a5.92,5.92,0,0,0-.7-1.45A3.19,3.19,0,0,0,43.26,6.6l-.72.46L42,6.3a2.57,2.57,0,0,0-1-1.34s-.68.21-1.24,1.49L39,7.28l-1-.83C37.49,5.17,36.81,5,36.81,5a2.62,2.62,0,0,0-1,1.34L35,7.21l-.44-.61a3.25,3.25,0,0,0-1.28-1.22,5.92,5.92,0,0,0-.7,1.45l.21,1.7.13.94,5.47.68,5.78-.43.94-.7Z" transform="translate(-20.99 -4.68)"/><path class="cls-12" d="M32.17,10a35.68,35.68,0,0,0,6.68,1.24A37.91,37.91,0,0,0,45.71,10a6.63,6.63,0,0,1,.49-3.49A5.79,5.79,0,0,0,44,8.32a8.82,8.82,0,0,0-1.34-2.7,24.83,24.83,0,0,0-1.83,2.76S39.58,5.79,39,5.51a11.49,11.49,0,0,0-1.89,2.92S36,6.51,35.26,5.6A9.15,9.15,0,0,0,33.9,8.32s-.36-1-2.24-1.83A6.64,6.64,0,0,1,32.17,10Z" transform="translate(-20.99 -4.68)"/><polygon class="cls-2" points="17.75 58.26 11.34 63.05 9.91 74.7 25.63 74.93 25.33 65.58 22.5 61.88 17.75 58.26"/><path class="cls-3" d="M41.94,77.29A3.91,3.91,0,0,1,42,76c.35-1.42,1.34-1.84,2-3.34a6.44,6.44,0,0,0,.51-1.9,8.88,8.88,0,0,0-.62-4.63L38.8,62.35l-3.45,3.23c-2.91,1.54-3.47,2.69-3.43,3.47.07,1.15,1.47,1.44,2,3.42.3,1.15,0,1.55.34,2.66A5.27,5.27,0,0,0,36,77.5l1.83-.34,2.9.51Z" transform="translate(-20.99 -4.68)"/><path class="cls-4" d="M38.93,63.47l0,.58s9.61,7.66,5.23,12.41l-1.09,6a25.5,25.5,0,0,0,7.3-2.68l-1.71-2.55a15.13,15.13,0,0,0,3-4.62s-2.55-.86-5.59-5.48L47.3,64.9s-5,.88-8.37-2.59c-3.35,3.47-8.38,2.59-8.38,2.59l1.22,2.19c-3,4.62-5.6,5.48-5.6,5.48a15.27,15.27,0,0,0,3,4.62l-1.71,2.55a25.5,25.5,0,0,0,7.3,2.68l-1.09-6C29.34,71.71,39,64.05,39,64.05Z" transform="translate(-20.99 -4.68)"/><polygon class="cls-3" points="22.73 74.09 24.11 73.48 23.42 72.79 23.65 71.64 19.58 72.25 15.36 71.02 12.75 72.02 11.29 73.56 11.6 74.25 15.74 73.86 18.73 73.78 20.35 73.86 22.73 74.09"/><path class="cls-5" d="M34.16,84.46a8.32,8.32,0,0,0,.37-2.57,13.35,13.35,0,0,0-.3-2.8L38.93,78l4.69,1.11a13.79,13.79,0,0,0-.29,2.8,8.32,8.32,0,0,0,.37,2.57" transform="translate(-20.99 -4.68)"/><polygon class="cls-2" points="22.88 75.93 19.73 73.86 24.87 74.02 22.88 75.93"/><polygon class="cls-2" points="12.59 75.93 15.74 73.86 10.6 74.02 12.59 75.93"/><path class="cls-6" d="M39.85,76.77c0-1.28.42-1.78.77-2s.74-.21,1.15-.61a2,2,0,0,0,.46-.77" transform="translate(-20.99 -4.68)"/><path class="cls-3" d="M35.45,73.28s-.39.38-.23,1.46.69,1.07.69,1.07-.39-.54.07-2.3,1-1.69.54-3.3l-.46-1.61" transform="translate(-20.99 -4.68)"/><path class="cls-3" d="M41.15,67.86a5.55,5.55,0,0,1,1.23,3.07,2.77,2.77,0,0,1-1.23,2.15" transform="translate(-20.99 -4.68)"/><polygon points="16.91 68.63 17.23 67.75 18.25 67.75 18.57 68.63 18.08 68.4 17.75 69.05 17.74 69.07 17.73 69.05 17.39 68.4 16.91 68.63"/><line class="cls-1" x1="17.94" y1="57.63" x2="17.94" y2="50.97"/><path class="cls-5" d="M46.77,90.11a.87.87,0,0,1,.71-.63.83.83,0,0,1,.75.3c.26.34.08.78,0,1.19-.14,1.43,1.41,1.87,1.65,3.85a1.63,1.63,0,0,1-.27,1.34,1.19,1.19,0,0,1-.89.41,1.14,1.14,0,0,1-.9-.41,3,3,0,0,1-.25-.51h0a3,3,0,0,1-.62.1l-.57-5.37Z" transform="translate(-20.99 -4.68)"/><path class="cls-5" d="M31.09,90.11a.87.87,0,0,0-.71-.63.82.82,0,0,0-.75.3c-.26.34-.08.78,0,1.19.15,1.43-1.4,1.87-1.64,3.85a1.64,1.64,0,0,0,.26,1.34,1.24,1.24,0,0,0,.9.41,1.11,1.11,0,0,0,.89-.41,2.33,2.33,0,0,0,.26-.51h0a3.37,3.37,0,0,0,.77.1L32,89.81l-.73.28" transform="translate(-20.99 -4.68)"/><path class="cls-7" d="M38.42,105c-10.26-.83-8.14-9.37-8.14-9.37l1.5-10.53c1.62-1.4,4.46-3.35,4.46-3.35l2.7.14,2.7-.14s2.84,2,4.46,3.35l1.5,10.53s2.12,8.54-8.14,9.37Z" transform="translate(-20.99 -4.68)"/><path class="cls-8" d="M41,95.32a.79.79,0,0,1-.39-.5,20,20,0,0,1,0-3.12c.11-.9.45-1.4-.55-1.57s-.73.23-2.4,1.23" transform="translate(-20.99 -4.68)"/><path class="cls-8" d="M37.79,92a.67.67,0,0,1-.73-.72c0-.79.84-.84.84-.84" transform="translate(-20.99 -4.68)"/><polygon class="cls-9" points="24.72 91.25 22.49 91.47 20.93 90.91 20.31 91.64 21.65 92.25 22.77 92.25 24.72 91.25"/><polygon class="cls-9" points="16.52 91.25 14.85 91.53 12.73 91.19 14.35 92.2 15.74 92.31 17.14 91.97 16.52 91.25"/><path class="cls-2" d="M33.93,94.3s.43-.85,1.08-.85.78.36,1.47.16c.3-.08.37,0,.39,0s-.14.42-.32.6a1.6,1.6,0,0,1-.58.35,1.79,1.79,0,0,1-.49.11,4,4,0,0,1-2.14-.63h0" transform="translate(-20.99 -4.68)"/><circle cx="14.3" cy="89.43" r="0.31"/><circle cx="12.36" cy="96.22" r="0.19"/><path class="cls-10" d="M44.91,94.1c-.46-.61-.84-.75-1.11-.75s-.5.2-1.07.25-.75-.09-.8,0,.62,1.05,1.58,1.09a2,2,0,0,0,1.4-.59,1.84,1.84,0,0,0,.33-.5" transform="translate(-20.99 -4.68)"/><circle cx="22.44" cy="89.43" r="0.31"/><path class="cls-9" d="M39.16,86.94a2.06,2.06,0,0,0,1.35.51c.93,0,1.18-.91,2.3-1.08a2.08,2.08,0,0,1,1.67.42A1.26,1.26,0,0,1,45,87.92a1,1,0,0,1-1,.74c-.33,0-.57-.34-.54-.39s.42.22.68.06a.52.52,0,0,0,.19-.49c0-.36-.42-.55-.52-.6a1.12,1.12,0,0,0-.86,0c-.34.14-.38.4-.66.74a2.32,2.32,0,0,1-1.75.88,2,2,0,0,1-1.35-.7,2,2,0,0,1-1.34.7,2.32,2.32,0,0,1-1.75-.88c-.28-.34-.33-.6-.67-.74a1.09,1.09,0,0,0-.85,0c-.1.05-.49.24-.53.6a.55.55,0,0,0,.2.49c.26.16.64-.12.68-.06s-.21.35-.55.39a1,1,0,0,1-1-.74,1.26,1.26,0,0,1,.47-1.13,2.07,2.07,0,0,1,1.67-.42c1.12.17,1.37,1,2.3,1.08A2,2,0,0,0,39.16,86.94Z" transform="translate(-20.99 -4.68)"/><path d="M41.22,86.05a3.12,3.12,0,0,1-1.28.34,7.1,7.1,0,0,1-1.62,0,3.94,3.94,0,0,1-1.22-.26L37,86a.08.08,0,0,1,0-.11.09.09,0,0,1,.09,0l.19,0a2.46,2.46,0,0,0,.57,0,6.69,6.69,0,0,1,1.46-.13c.21,0,.2,0,1.31.21h0c.32,0,.49.07.56,0s.07-.05.11,0,0,0,0,0S41.23,86,41.22,86.05Z" transform="translate(-20.99 -4.68)"/><circle cx="10.89" cy="93.12" r="0.19"/><circle cx="13.47" cy="95.91" r="0.19"/><circle cx="18.17" cy="78.56" r="0.19"/><circle cx="17.21" cy="78.09" r="0.19"/><circle cx="19.33" cy="78.53" r="0.19"/><circle cx="19.52" cy="79.32" r="0.19"/><circle cx="20.04" cy="77.85" r="0.19"/><circle cx="17.06" cy="79.17" r="0.19"/><circle cx="15.21" cy="79.76" r="0.19"/><circle cx="15.3" cy="78.11" r="0.19"/><circle cx="20.6" cy="78.58" r="0.19"/><circle cx="21.16" cy="79.57" r="0.19"/><circle cx="11.3" cy="95.45" r="0.19"/><circle cx="10.82" cy="94.62" r="0.19"/><circle cx="11.8" cy="94.56" r="0.19"/><circle cx="16.12" cy="78.75" r="0.19"/><circle cx="22.09" cy="79.09" r="0.19"/><circle cx="23.25" cy="79.72" r="0.19"/><circle cx="22.5" cy="80.24" r="0.19"/><circle cx="14.12" cy="79.12" r="0.19"/><circle cx="12.93" cy="80.66" r="0.19"/><circle cx="13.13" cy="79.65" r="0.19"/><circle cx="9.95" cy="92.23" r="0.19"/><circle cx="9.98" cy="94.3" r="0.19"/><circle cx="10.88" cy="96.44" r="0.19"/><circle cx="25.48" cy="95.57" r="0.19"/><circle cx="24.2" cy="95.87" r="0.19"/><circle cx="26.04" cy="93.07" r="0.19"/><circle cx="22.14" cy="95.88" r="0.19"/><circle cx="25.67" cy="94.25" r="0.19"/><circle cx="24.62" cy="94.64" r="0.19"/><circle cx="24.94" cy="96.68" r="0.19"/><circle cx="25.01" cy="93.22" r="0.19"/><path class="cls-11" d="M32.62,105.28a5.74,5.74,0,0,0,.7,1.44,3.13,3.13,0,0,0,1.28-1.21l.72-.47.53.77a2.66,2.66,0,0,0,1,1.34s.68-.21,1.24-1.49l.78-.83,1,.83c.56,1.28,1.24,1.49,1.24,1.49a2.61,2.61,0,0,0,1-1.34l.85-.92.45.62a3.13,3.13,0,0,0,1.28,1.21,5.74,5.74,0,0,0,.7-1.44l-.21-1.71-.13-.93L39.47,102l-5.79.42-.93.7Z" transform="translate(-20.99 -4.68)"/><path class="cls-12" d="M45.68,102.08A35.75,35.75,0,0,0,39,100.85a37.93,37.93,0,0,0-6.85,1.26,6.63,6.63,0,0,1-.49,3.49,5.91,5.91,0,0,0,2.19-1.81,8.84,8.84,0,0,0,1.35,2.7A23.38,23.38,0,0,0,37,103.72s1.26,2.6,1.88,2.88a11.49,11.49,0,0,0,1.89-2.92s1.11,1.92,1.81,2.83A9.42,9.42,0,0,0,44,103.79s.36,1,2.24,1.83A6.62,6.62,0,0,1,45.68,102.08Z" transform="translate(-20.99 -4.68)"/><path class="cls-13" d="M41.44,19.09a2.35,2.35,0,0,0,1,.32,2.46,2.46,0,0,0,.86-.1" transform="translate(-20.99 -4.68)"/><path class="cls-13" d="M35.77,19.09a2.85,2.85,0,0,1-.8.38,3.17,3.17,0,0,1-.91.13" transform="translate(-20.99 -4.68)"/></svg>