<svg id="kraljica" xmlns="http://www.w3.org/2000/svg" viewBox="0 0 32.99 104.68"><defs><style>.cls-1{fill:#eacbac;}.cls-1,.cls-10,.cls-11,.cls-2,.cls-3,.cls-4,.cls-5,.cls-6,.cls-7,.cls-8,.cls-9{stroke:#000;}.cls-1,.cls-10,.cls-11,.cls-2,.cls-3,.cls-4,.cls-5,.cls-7,.cls-8,.cls-9{stroke-linecap:round;stroke-linejoin:round;}.cls-1,.cls-10,.cls-11,.cls-4,.cls-5,.cls-6,.cls-7,.cls-8,.cls-9{stroke-width:0.5px;}.cls-2{fill:#1b1a5b;}.cls-2,.cls-3{stroke-width:0.49px;}.cls-3,.cls-7{fill:#fff;}.cls-4{fill:#281a0e;}.cls-5{fill:none;}.cls-6{fill:#f2d6bd;stroke-miterlimit:10;}.cls-8{fill:#33241a;}.cls-9{fill:#302116;}.cls-10{fill:#ccc;}.cls-11{fill:#999;}</style></defs><path class="cls-1" d="M24.16,54.81s.41-12.87,1.72-18.41a2.85,2.85,0,0,1,.29-.81c1.43-2.55,6.34-.79,8.32-3.38a4.17,4.17,0,0,0,.76-2.28,5.44,5.44,0,0,0-1.43-3.85L44,19.9a50.12,50.12,0,0,0-.47,7.51c0,1.82.13,2.69.76,3.42.24.29.77.81,4.61,1.48,2.9.5,4.55.55,5.8,1.9a4.92,4.92,0,0,1,.47.62c1.79,2.72,1,17.24.73,21-.24,5.09-.78,14.51-1.6,17.95a3,3,0,0,1-.28.81c-1.43,2.55-6.35.78-8.32,3.37a4.23,4.23,0,0,0-.77,2.29,5.47,5.47,0,0,0,1.43,3.85L36.18,90.27a50.35,50.35,0,0,0,.48-7.51c0-1.82-.14-2.69-.76-3.43-.24-.28-.78-.8-4.61-1.47-2.9-.51-4.56-.55-5.8-1.9a5.33,5.33,0,0,1-.48-.62C23,72.23,24,60.32,24.16,54.81Z" transform="translate(-23.51 -2.74)"/><path class="cls-2" d="M30.13,55a52.14,52.14,0,0,1-1.41,10.31,69.63,69.63,0,0,1-3.64,11.62l7.22,1.72,2.42-9.06a15.5,15.5,0,0,0,5.36.64,15.78,15.78,0,0,0,5.05-1.15c.89,2.79,1.78,5.57,2.68,8.36l6.44-2.17a39.48,39.48,0,0,1-3.89-12.57,46.13,46.13,0,0,1-.19-8.92,62.6,62.6,0,0,1,1.24-8.89,64.89,64.89,0,0,1,3.64-11.61l-7.21-1.73L45.41,40.6a15.47,15.47,0,0,0-10.4.51l-2.68-8.37-6.45,2.17a40.92,40.92,0,0,1,3.89,12.58A43.31,43.31,0,0,1,30.13,55Z" transform="translate(-23.51 -2.74)"/><circle class="cls-3" cx="12.21" cy="77.18" r="0.98"/><circle class="cls-3" cx="22.43" cy="75.83" r="0.98"/><circle class="cls-3" cx="18.2" cy="74.51" r="0.98"/><circle class="cls-3" cx="17.46" cy="71.34" r="0.98"/><circle class="cls-3" cx="19.53" cy="72.25" r="0.98"/><circle class="cls-3" cx="21.43" cy="73.24" r="0.98"/><circle class="cls-3" cx="15.29" cy="71.98" r="0.98"/><circle class="cls-3" cx="13.49" cy="73.42" r="0.98"/><circle class="cls-3" cx="12.12" cy="75.01" r="0.98"/><circle class="cls-3" cx="16.03" cy="74.83" r="0.98"/><circle class="cls-3" cx="14.06" cy="75.69" r="0.98"/><circle class="cls-3" cx="12.3" cy="76.54" r="0.98"/><circle class="cls-3" cx="20.17" cy="74.86" r="0.98"/><circle class="cls-3" cx="22.14" cy="75.22" r="0.98"/><circle class="cls-3" cx="20.21" cy="58.57" r="0.98"/><circle class="cls-3" cx="20.93" cy="60.72" r="0.98"/><circle class="cls-3" cx="22.71" cy="68.82" r="0.98"/><circle class="cls-3" cx="23.32" cy="70.86" r="0.98"/><circle class="cls-3" cx="24.14" cy="72.9" r="0.98"/><circle class="cls-3" cx="23.78" cy="74.32" r="0.98"/><circle class="cls-3" cx="23.01" cy="72.47" r="0.98"/><circle class="cls-3" cx="22.15" cy="70.53" r="0.98"/><circle class="cls-3" cx="21.16" cy="68.55" r="0.98"/><circle class="cls-3" cx="19.9" cy="66.47" r="0.98"/><circle class="cls-3" cx="18.81" cy="64.48" r="0.98"/><circle class="cls-3" cx="17.01" cy="63.04" r="0.98"/><circle class="cls-3" cx="14.84" cy="63.67" r="0.98"/><circle class="cls-3" cx="15.92" cy="58.16" r="0.98"/><circle class="cls-3" cx="16.64" cy="53.77" r="0.98"/><circle class="cls-3" cx="18.78" cy="54.69" r="0.98"/><circle class="cls-3" cx="19.6" cy="56.63" r="0.98"/><circle class="cls-3" cx="14.49" cy="54.79" r="0.98"/><circle class="cls-3" cx="12.9" cy="56.36" r="0.98"/><circle class="cls-3" cx="11.98" cy="58.3" r="0.98"/><circle class="cls-3" cx="11.37" cy="60.34" r="0.98"/><circle class="cls-3" cx="11.06" cy="62.49" r="0.98"/><circle class="cls-3" cx="10.55" cy="64.43" r="0.98"/><circle class="cls-3" cx="18.32" cy="58.5" r="0.98"/><circle class="cls-3" cx="19.64" cy="60.55" r="0.98"/><circle class="cls-3" cx="20.87" cy="62.59" r="0.98"/><circle class="cls-3" cx="21.58" cy="64.63" r="0.98"/><circle class="cls-3" cx="22.09" cy="66.67" r="0.98"/><circle class="cls-3" cx="14.12" cy="59.61" r="0.98"/><circle class="cls-3" cx="12.94" cy="61.59" r="0.98"/><circle class="cls-3" cx="11.77" cy="63.4" r="0.98"/><circle class="cls-3" cx="10.69" cy="65.48" r="0.98"/><circle class="cls-3" cx="9.87" cy="67.62" r="0.98"/><circle class="cls-3" cx="9.46" cy="69.87" r="0.98"/><circle class="cls-3" cx="8.75" cy="72.22" r="0.98"/><circle class="cls-3" cx="8.34" cy="74.26" r="0.98"/><circle class="cls-3" cx="13.4" cy="65.48" r="0.98"/><circle class="cls-3" cx="12.4" cy="67.46" r="0.98"/><circle class="cls-3" cx="11.77" cy="69.72" r="0.98"/><circle class="cls-3" cx="10.96" cy="71.98" r="0.98"/><circle class="cls-3" cx="10.33" cy="74.14" r="0.98"/><circle class="cls-3" cx="10.06" cy="76.31" r="0.98"/><circle class="cls-3" cx="20.91" cy="27.5" r="0.98"/><circle class="cls-3" cx="10.69" cy="28.85" r="0.98"/><circle class="cls-3" cx="14.92" cy="30.17" r="0.98"/><circle class="cls-3" cx="15.67" cy="33.34" r="0.98"/><circle class="cls-3" cx="13.59" cy="32.43" r="0.98"/><circle class="cls-3" cx="11.69" cy="31.44" r="0.98"/><circle class="cls-3" cx="17.83" cy="32.7" r="0.98"/><circle class="cls-3" cx="19.64" cy="31.26" r="0.98"/><circle class="cls-3" cx="21.01" cy="29.67" r="0.98"/><circle class="cls-3" cx="17.1" cy="29.85" r="0.98"/><circle class="cls-3" cx="19.06" cy="28.99" r="0.98"/><circle class="cls-3" cx="20.83" cy="28.14" r="0.98"/><circle class="cls-3" cx="12.96" cy="29.82" r="0.98"/><circle class="cls-3" cx="10.99" cy="29.46" r="0.98"/><circle class="cls-3" cx="12.91" cy="46.11" r="0.98"/><circle class="cls-3" cx="12.2" cy="43.96" r="0.98"/><circle class="cls-3" cx="10.42" cy="35.86" r="0.98"/><circle class="cls-3" cx="9.8" cy="33.82" r="0.98"/><circle class="cls-3" cx="8.99" cy="31.78" r="0.98"/><circle class="cls-3" cx="9.35" cy="30.36" r="0.98"/><circle class="cls-3" cx="10.11" cy="32.21" r="0.98"/><circle class="cls-3" cx="10.97" cy="34.15" r="0.98"/><circle class="cls-3" cx="11.97" cy="36.13" r="0.98"/><circle class="cls-3" cx="13.23" cy="38.21" r="0.98"/><circle class="cls-3" cx="14.31" cy="40.2" r="0.98"/><circle class="cls-3" cx="16.12" cy="41.64" r="0.98"/><circle class="cls-3" cx="18.28" cy="41.01" r="0.98"/><circle class="cls-3" cx="17.2" cy="46.52" r="0.98"/><circle class="cls-3" cx="16.49" cy="50.91" r="0.98"/><circle class="cls-3" cx="14.34" cy="49.99" r="0.98"/><circle class="cls-3" cx="13.52" cy="48.05" r="0.98"/><circle class="cls-3" cx="18.63" cy="49.89" r="0.98"/><circle class="cls-3" cx="20.22" cy="48.32" r="0.98"/><circle class="cls-3" cx="21.14" cy="46.38" r="0.98"/><circle class="cls-3" cx="21.75" cy="44.34" r="0.98"/><circle class="cls-3" cx="22.06" cy="42.19" r="0.98"/><circle class="cls-3" cx="22.57" cy="40.25" r="0.98"/><circle class="cls-3" cx="14.81" cy="46.18" r="0.98"/><circle class="cls-3" cx="13.48" cy="44.13" r="0.98"/><circle class="cls-3" cx="12.26" cy="42.09" r="0.98"/><circle class="cls-3" cx="11.54" cy="40.05" r="0.98"/><circle class="cls-3" cx="11.03" cy="38.01" r="0.98"/><circle class="cls-3" cx="19.01" cy="45.07" r="0.98"/><circle class="cls-3" cx="20.18" cy="43.08" r="0.98"/><circle class="cls-3" cx="21.35" cy="41.28" r="0.98"/><circle class="cls-3" cx="22.44" cy="39.2" r="0.98"/><circle class="cls-3" cx="23.25" cy="37.06" r="0.98"/><circle class="cls-3" cx="23.66" cy="34.81" r="0.98"/><circle class="cls-3" cx="24.38" cy="32.46" r="0.98"/><circle class="cls-3" cx="24.79" cy="30.42" r="0.98"/><circle class="cls-3" cx="19.73" cy="39.2" r="0.98"/><circle class="cls-3" cx="20.72" cy="37.22" r="0.98"/><circle class="cls-3" cx="21.35" cy="34.96" r="0.98"/><circle class="cls-3" cx="22.17" cy="32.7" r="0.98"/><circle class="cls-3" cx="22.8" cy="30.54" r="0.98"/><circle class="cls-3" cx="23.07" cy="28.37" r="0.98"/><path class="cls-4" d="M33.3,26.27l-6.85,1.85c.64-2.49,1.24-5.18,1.76-8s.9-5.55,1.19-8.1L32,12.2Z" transform="translate(-23.51 -2.74)"/><path class="cls-5" d="M31.74,22.14a8.18,8.18,0,0,1-.06,2.77,7.8,7.8,0,0,1-.63,1.9" transform="translate(-23.51 -2.74)"/><path class="cls-5" d="M29.43,22.18a13,13,0,0,1-.58,3,13.37,13.37,0,0,1-1.11,2.53" transform="translate(-23.51 -2.74)"/><path class="cls-5" d="M30.23,23.94A6.22,6.22,0,0,1,30,26a6.39,6.39,0,0,1-.59,1.3" transform="translate(-23.51 -2.74)"/><path class="cls-6" d="M35.91,6.92c-1.84,0-4.49,0-5.54,1.64a5,5,0,0,0-.53,2.83c.12,1.31.66,1.5.63,2.58s-.73,1.42-1.07,2.81a6.38,6.38,0,0,0,.35,3.65c.71,2.13,1.63,1.95,1.92,3.71a9.8,9.8,0,0,0,.66,2.39,1.83,1.83,0,0,0,.59.85,2.21,2.21,0,0,0,1.45.32c1.16-.1,5.17-2.22,10.33-5.51,2.63-5.1,2.14-10.59-.82-13.25C41.66,7,38.5,6.94,35.91,6.92Z" transform="translate(-23.51 -2.74)"/><path class="cls-5" d="M32.54,19.33a.25.25,0,0,0-.15.05.37.37,0,0,0,0,.46" transform="translate(-23.51 -2.74)"/><path class="cls-5" d="M35.26,18.73a.77.77,0,0,1,.53.94.72.72,0,0,1-.63.46" transform="translate(-23.51 -2.74)"/><path class="cls-5" d="M33.63,19.21a.8.8,0,0,1,.6.14.72.72,0,0,1,.24.3" transform="translate(-23.51 -2.74)"/><path class="cls-7" d="M40.3,14.39a2.2,2.2,0,0,1-.61.16,5.28,5.28,0,0,1-1.49-.19,2.85,2.85,0,0,0-1.42.24,1.7,1.7,0,0,0,1.54.8,1.73,1.73,0,0,0,1.28-.8" transform="translate(-23.51 -2.74)"/><path class="cls-7" d="M30.83,14.66a1.1,1.1,0,0,0,2.08-.06,2.27,2.27,0,0,0-1.18-.24,3,3,0,0,1-.95.09,1.49,1.49,0,0,1-.68-.31" transform="translate(-23.51 -2.74)"/><circle cx="14.85" cy="12" r="0.24"/><circle cx="12.86" cy="19.03" r="0.24"/><circle cx="8.41" cy="12" r="0.24"/><path class="cls-5" d="M36.85,13.93a1.93,1.93,0,0,1,1.46-.56,2,2,0,0,1,1.2.56" transform="translate(-23.51 -2.74)"/><path class="cls-5" d="M32.88,14a1.4,1.4,0,0,0-2.23-.23" transform="translate(-23.51 -2.74)"/><path class="cls-5" d="M29.92,12.41a2.38,2.38,0,0,1,1.23-.83,2.23,2.23,0,0,1,2.13.52,2.53,2.53,0,0,1,.62,1.75,7.85,7.85,0,0,1-.16,1.46,10.29,10.29,0,0,1-.4,1.92c-.47.92-1.22,1.09-1.13,1.58.07.32.46.56.74.73a2.29,2.29,0,0,0,.67.28" transform="translate(-23.51 -2.74)"/><path class="cls-5" d="M36.85,12.34a2.91,2.91,0,0,1,1.63-.83,3.22,3.22,0,0,1,2.72,1.26" transform="translate(-23.51 -2.74)"/><path class="cls-5" d="M36.55,15.25a1.63,1.63,0,0,0,.52.72,1.71,1.71,0,0,0,1.06.32" transform="translate(-23.51 -2.74)"/><path class="cls-5" d="M33.08,15.38a1.17,1.17,0,0,1-.39.52,1.2,1.2,0,0,1-.83.22" transform="translate(-23.51 -2.74)"/><path d="M33.35,22.83a2.51,2.51,0,0,1,.61-.06,2.44,2.44,0,0,1,.62.12c.39.12.37.17.72.28a1.92,1.92,0,0,0,.84.07c.17,0,.26-.07.3-.15a.22.22,0,0,0,0-.22c-.08-.08-.21,0-.42,0a.82.82,0,0,1-.38-.16c-.51-.29-.53-.6-.85-.65a1,1,0,0,0-.4.06c-.24.08-.28.19-.41.18s-.2-.2-.42-.24a.51.51,0,0,0-.32.05c-.13.06-.15.13-.36.35s-.26.27-.37.3-.29,0-.34.09a.17.17,0,0,0,0,.18c.1.13.36.08.58,0S33.07,22.9,33.35,22.83Z" transform="translate(-23.51 -2.74)"/><path class="cls-5" d="M33.2,23.42a1.35,1.35,0,0,0,.61.26,1.41,1.41,0,0,0,.83-.13" transform="translate(-23.51 -2.74)"/><path class="cls-8" d="M48.9,23.13a18.84,18.84,0,0,0-.1-10.65A14.53,14.53,0,0,0,44,5.35a7.3,7.3,0,0,0-3.23-1.43,6.62,6.62,0,0,0-3.24.38l-3,4.85a4.62,4.62,0,0,1,3.48-1.71c3.07.29,4.81,5.9,5.13,9.27a17.21,17.21,0,0,1-3.57,11.65Z" transform="translate(-23.51 -2.74)"/><path class="cls-9" d="M29.4,12.2a7.69,7.69,0,0,1,1.38-4.81,7.67,7.67,0,0,1,4.47-2.94,7.58,7.58,0,0,1,2.47-.19L34.54,9a2.63,2.63,0,0,0-2-.76A2.55,2.55,0,0,0,31.07,9,5.8,5.8,0,0,0,29.4,12.2Z" transform="translate(-23.51 -2.74)"/><path class="cls-5" d="M47.52,14.86a12.86,12.86,0,0,1,.85,5.47,12.44,12.44,0,0,1-.74,3.51" transform="translate(-23.51 -2.74)"/><path class="cls-5" d="M45.47,17.57a11.7,11.7,0,0,1,.24,5.09,11.11,11.11,0,0,1-.85,2.74" transform="translate(-23.51 -2.74)"/><path class="cls-5" d="M44.43,20.33a11.26,11.26,0,0,1-.53,2.94,11.39,11.39,0,0,1-2.06,3.79" transform="translate(-23.51 -2.74)"/><path class="cls-5" d="M46.76,20.37a7.91,7.91,0,0,1,.09,2.1,7.28,7.28,0,0,1-.5,2.07" transform="translate(-23.51 -2.74)"/><path class="cls-10" d="M34.11,7.43A10.88,10.88,0,0,0,30.93,8.5l0-.09a3,3,0,0,1,.29-2.29A2.87,2.87,0,0,1,32.63,4.9a2.61,2.61,0,0,1,1,.58A4.38,4.38,0,0,1,36.47,3,3.84,3.84,0,0,1,38.8,4.14a3.83,3.83,0,0,1,.8,1.35A3.27,3.27,0,0,1,41,5,3.45,3.45,0,0,1,42.5,7.37a3.26,3.26,0,0,1-.32,1.83,11.19,11.19,0,0,0-6.25-1.93A10.36,10.36,0,0,0,34.11,7.43Z" transform="translate(-23.51 -2.74)"/><path class="cls-11" d="M30.81,7.32a2.78,2.78,0,0,1,.38-1.2A2.87,2.87,0,0,1,32.63,4.9a2.89,2.89,0,0,1,1.18.79,2.76,2.76,0,0,1,.72,1.67,11.27,11.27,0,0,0-3.6,1.14l0-.09A3.16,3.16,0,0,1,30.81,7.32Z" transform="translate(-23.51 -2.74)"/><path class="cls-11" d="M42.48,8.29a3.26,3.26,0,0,1-.3.92,11.2,11.2,0,0,0-4-1.72A4.24,4.24,0,0,1,39,6,3.21,3.21,0,0,1,41,5,3.45,3.45,0,0,1,42.5,7.37,3.47,3.47,0,0,1,42.48,8.29Z" transform="translate(-23.51 -2.74)"/><path class="cls-4" d="M46.83,83.9,53.68,82c-.64,2.5-1.23,5.18-1.75,8s-.91,5.55-1.19,8.1L48.17,98Z" transform="translate(-23.51 -2.74)"/><path class="cls-5" d="M48.39,88a8.12,8.12,0,0,1,.06-2.76,8.52,8.52,0,0,1,.63-1.91" transform="translate(-23.51 -2.74)"/><path class="cls-5" d="M50.7,88a13.38,13.38,0,0,1,.58-3,13.11,13.11,0,0,1,1.12-2.54" transform="translate(-23.51 -2.74)"/><path class="cls-5" d="M49.9,86.22a6.21,6.21,0,0,1,.87-3.38" transform="translate(-23.51 -2.74)"/><path class="cls-6" d="M44.22,103.24c1.84,0,4.49,0,5.54-1.64a5.15,5.15,0,0,0,.54-2.83c-.13-1.3-.66-1.49-.63-2.58s.73-1.41,1.07-2.8a6.38,6.38,0,0,0-.35-3.65c-.71-2.13-1.64-2-1.92-3.72a9.8,9.8,0,0,0-.66-2.39,2,2,0,0,0-.6-.85,2.22,2.22,0,0,0-1.45-.31c-1.15.09-5.16,2.22-10.32,5.51-2.64,5.1-2.14,10.59.82,13.25C38.47,103.22,41.63,103.23,44.22,103.24Z" transform="translate(-23.51 -2.74)"/><path class="cls-5" d="M47.59,90.84a.17.17,0,0,0,.15-.06.37.37,0,0,0,0-.46" transform="translate(-23.51 -2.74)"/><path class="cls-5" d="M44.88,91.43a.77.77,0,0,1-.54-.93A.74.74,0,0,1,45,90" transform="translate(-23.51 -2.74)"/><path class="cls-5" d="M46.5,91a.81.81,0,0,1-.59-.13.65.65,0,0,1-.25-.31" transform="translate(-23.51 -2.74)"/><path class="cls-7" d="M39.84,95.77a2.44,2.44,0,0,1,.61-.15,5.34,5.34,0,0,1,1.49.18,2.79,2.79,0,0,0,1.41-.23,1.64,1.64,0,0,0-1.53-.8,1.79,1.79,0,0,0-1.29.79" transform="translate(-23.51 -2.74)"/><path class="cls-7" d="M49.3,95.51a1.1,1.1,0,0,0-1-.73,1.12,1.12,0,0,0-1.08.79,2.17,2.17,0,0,0,1.18.23,3.37,3.37,0,0,1,1-.09A1.39,1.39,0,0,1,50,96" transform="translate(-23.51 -2.74)"/><circle cx="18.27" cy="92.68" r="0.24"/><circle cx="20.26" cy="85.65" r="0.24"/><circle cx="24.72" cy="92.68" r="0.24"/><path class="cls-5" d="M43.28,96.23a1.93,1.93,0,0,1-1.46.56,1.81,1.81,0,0,1-1.19-.56" transform="translate(-23.51 -2.74)"/><path class="cls-5" d="M47.26,96.16a1.36,1.36,0,0,0,.73.6,1.5,1.5,0,0,0,1.49-.36" transform="translate(-23.51 -2.74)"/><path class="cls-5" d="M50.21,97.76a2.38,2.38,0,0,1-1.23.83,2.24,2.24,0,0,1-2.13-.53,2.51,2.51,0,0,1-.62-1.74,7.38,7.38,0,0,1,.17-1.47,9.8,9.8,0,0,1,.39-1.91c.48-.93,1.23-1.09,1.13-1.58-.06-.33-.46-.57-.73-.73a2.22,2.22,0,0,0-.68-.28" transform="translate(-23.51 -2.74)"/><path class="cls-5" d="M43.28,97.82a2.77,2.77,0,0,1-1.62.83,3.19,3.19,0,0,1-2.72-1.26" transform="translate(-23.51 -2.74)"/><path class="cls-5" d="M43.59,94.91a1.69,1.69,0,0,0-.53-.71A1.57,1.57,0,0,0,42,93.88" transform="translate(-23.51 -2.74)"/><path class="cls-5" d="M47.05,94.78a1.17,1.17,0,0,1,.4-.51,1.21,1.21,0,0,1,.82-.23" transform="translate(-23.51 -2.74)"/><path d="M46.78,87.34a2.51,2.51,0,0,1-.61.06,2,2,0,0,1-.61-.13c-.39-.11-.37-.17-.72-.27a1.82,1.82,0,0,0-.85-.07c-.17,0-.25.07-.29.14a.19.19,0,0,0,0,.22c.07.09.21,0,.42,0a.94.94,0,0,1,.38.16c.51.3.53.61.85.65a.8.8,0,0,0,.39-.06c.25-.08.28-.18.42-.17s.19.19.42.23a.51.51,0,0,0,.32,0c.13,0,.14-.12.35-.34a1.32,1.32,0,0,1,.37-.31c.17,0,.3,0,.35-.08a.19.19,0,0,0,0-.19c-.1-.12-.35-.07-.58,0S47.07,87.27,46.78,87.34Z" transform="translate(-23.51 -2.74)"/><path class="cls-5" d="M46.94,86.75a1.47,1.47,0,0,0-.61-.26,1.56,1.56,0,0,0-.84.12" transform="translate(-23.51 -2.74)"/><path class="cls-8" d="M31.24,87a18.92,18.92,0,0,0,.09,10.65,14.58,14.58,0,0,0,4.81,7.14,7,7,0,0,0,3.23,1.42,6.56,6.56,0,0,0,3.23-.38L45.55,101a4.55,4.55,0,0,1-3.47,1.71c-3.08-.29-4.81-5.9-5.14-9.27A17.36,17.36,0,0,1,40.51,81.8Z" transform="translate(-23.51 -2.74)"/><path class="cls-9" d="M50.73,98a7.53,7.53,0,0,1-1.38,4.8,7.67,7.67,0,0,1-4.47,3,7.85,7.85,0,0,1-2.47.19l3.19-4.71a2.29,2.29,0,0,0,3.47,0A5.71,5.71,0,0,0,50.73,98Z" transform="translate(-23.51 -2.74)"/><path class="cls-5" d="M32.62,95.31a12.68,12.68,0,0,1-.86-5.47,12.93,12.93,0,0,1,.75-3.52" transform="translate(-23.51 -2.74)"/><path class="cls-5" d="M34.66,92.6a11.52,11.52,0,0,1,.61-7.83" transform="translate(-23.51 -2.74)"/><path class="cls-5" d="M35.71,89.84a11.26,11.26,0,0,1,.52-3,11.51,11.51,0,0,1,2.06-3.78" transform="translate(-23.51 -2.74)"/><path class="cls-5" d="M33.38,89.79a7.38,7.38,0,0,1-.1-2.09,8,8,0,0,1,.5-2.07" transform="translate(-23.51 -2.74)"/><path class="cls-10" d="M46,102.74a11.26,11.26,0,0,0,3.18-1.08l0,.09a2.88,2.88,0,0,1-1.72,3.52,3,3,0,0,1-1-.58,4.29,4.29,0,0,1-2.87,2.48A3.8,3.8,0,0,1,41.33,106a3.67,3.67,0,0,1-.79-1.34,3.42,3.42,0,0,1-1.43.45,3.47,3.47,0,0,1-1.48-2.34A3.25,3.25,0,0,1,38,101a11.16,11.16,0,0,0,6.25,1.94A10.36,10.36,0,0,0,46,102.74Z" transform="translate(-23.51 -2.74)"/><path class="cls-11" d="M49.33,102.84a2.92,2.92,0,0,1-.38,1.21,3,3,0,0,1-1.44,1.22,3,3,0,0,1-1.19-.79,2.81,2.81,0,0,1-.71-1.68,10.79,10.79,0,0,0,3.6-1.14l0,.09A2.87,2.87,0,0,1,49.33,102.84Z" transform="translate(-23.51 -2.74)"/><path class="cls-11" d="M37.66,101.87A3.74,3.74,0,0,1,38,101a11.37,11.37,0,0,0,4,1.71,3.69,3.69,0,0,1-.78,1.49,3.23,3.23,0,0,1-2.08,1,3.47,3.47,0,0,1-1.48-2.34A3.07,3.07,0,0,1,37.66,101.87Z" transform="translate(-23.51 -2.74)"/></svg>