<svg id="Layer_1" data-name="Layer 1" xmlns="http://www.w3.org/2000/svg" viewBox="0 0 15.75 15.44"><defs><style>.cls-1{fill:#fff;opacity:0.5;}</style></defs><path d="M0,10.75A3.94,3.94,0,0,1,5.9,7.33a3.93,3.93,0,1,1,5.92-3.39.92.92,0,0,1,0,.16A3.93,3.93,0,0,1,9.74,7.4h0a3.86,3.86,0,0,1,2.07-.6,3.94,3.94,0,1,1-3.68,5.33,4,4,0,0,0,2.13,3.3H5.48a3.92,3.92,0,0,0,2.13-3.31A3.93,3.93,0,0,1,0,10.75Z"/><path class="cls-1" d="M7,14.91a2.09,2.09,0,0,0,.84-1.54h0a2.07,2.07,0,0,0,.84,1.54Z"/><path class="cls-1" d="M1.31,10.2A3.28,3.28,0,0,1,4.59,6.92h.07A3.26,3.26,0,0,1,6,7.22a3.28,3.28,0,1,1,5.21-2.65.62.62,0,0,1,0,.13A3.22,3.22,0,0,1,9.78,7.22a3.35,3.35,0,0,1,1.38-.3h0A3.28,3.28,0,1,1,7.88,10.2a.28.28,0,0,1,0-.09h0a.28.28,0,0,1,0,.09,3.28,3.28,0,0,1-6.56,0Z"/><path d="M2.33,9.76A2.77,2.77,0,0,1,5.1,7h.06a2.81,2.81,0,0,1,1.09.25A2.76,2.76,0,1,1,10.64,5v.11A2.73,2.73,0,0,1,9.49,7.25,2.62,2.62,0,0,1,10.64,7h0A2.77,2.77,0,1,1,7.88,9.76a.25.25,0,0,1,0-.08h0a.25.25,0,0,1,0,.08,2.77,2.77,0,0,1-5.54,0Z"/></svg>