<svg id="Layer_1" data-name="Layer 1" xmlns="http://www.w3.org/2000/svg" viewBox="0 0 17.11 14.39"><defs><style>.cls-1{fill:#eb4034;}.cls-2{fill:#fff;opacity:0.5;}</style></defs><path class="cls-1" d="M17.11,4.27A4.27,4.27,0,0,1,13.9,8.41v.06a6.21,6.21,0,0,0-5.28,5.92H8.49a6.25,6.25,0,0,0-5-5.87v0a4.27,4.27,0,1,1,5-4.21,1.83,1.83,0,0,1,0,.33h0a1.83,1.83,0,0,1,0-.33,4.28,4.28,0,0,1,8.56,0Z"/><path class="cls-2" d="M15.71,4.75A3.58,3.58,0,0,1,13,8.21v0a5.19,5.19,0,0,0-4.41,5H8.5A5.24,5.24,0,0,0,4.34,8.3v0A3.57,3.57,0,1,1,8.55,4.75a1.23,1.23,0,0,1,0,.27h0a1.23,1.23,0,0,1,0-.27,3.58,3.58,0,0,1,7.16,0Z"/><path class="cls-1" d="M14.41,5.2A2.91,2.91,0,0,1,12.21,8v.05a4.23,4.23,0,0,0-3.61,4H8.51a4.28,4.28,0,0,0-3.4-4v0A2.92,2.92,0,1,1,8.55,5.2a1.62,1.62,0,0,1,0,.22h0a.82.82,0,0,1,0-.22,2.93,2.93,0,0,1,5.86,0Z"/></svg>